%FSLAX35Y35*%
%MOIN*%
%IN*%
%ADD10C,0.00591*%
%ADD11C,0.00061*%
%ADD12C,0.00394*%
%ADD13C,0.00768*%
%ADD14C,0.02598*%
%ADD15C,0.02992*%
%ADD16C,0.03937*%
%ADD17C,0.08661*%
%AMR_18*21,1,0.03937,0.19685,0,0,0.000*%
%ADD18R_18*%
%AMR_19*21,1,0.04646,0.03346,0,0,0.000*%
%ADD19R_19*%
%AMR_20*21,1,0.13780,0.19685,0,0,0.000*%
%ADD20R_20*%
%AMR_21*21,1,0.19685,0.18819,0,0,0.000*%
%ADD21R_21*%
%AMR_22*21,1,0.19685,0.19685,0,0,0.000*%
%ADD22R_22*%
G54D14*
X16220Y1621D03*
X16220Y1621D03*
X35039Y1621D03*
X35039Y1621D03*
X53858Y1621D03*
X53858Y1621D03*
X72677Y1621D03*
X72677Y1621D03*
X91496Y1621D03*
X91496Y1621D03*
X110314Y1621D03*
X110314Y1621D03*
X129133Y1621D03*
X129133Y1621D03*
X147952Y1621D03*
X147952Y1621D03*
X166771Y1621D03*
X166771Y1621D03*
X185590Y1621D03*
X185590Y1621D03*
X204409Y1621D03*
X204409Y1621D03*
X223228Y1621D03*
X223228Y1621D03*
X242047Y1621D03*
X242047Y1621D03*
X260866Y1621D03*
X260866Y1621D03*
X279685Y1621D03*
X279685Y1621D03*
X298503Y1621D03*
X298503Y1621D03*
X317322Y1621D03*
X317322Y1621D03*
X336141Y1621D03*
X336141Y1621D03*
X354960Y1621D03*
X354960Y1621D03*
X373779Y1621D03*
X373779Y1621D03*
X392598Y1621D03*
X392598Y1621D03*
X411417Y1621D03*
X411417Y1621D03*
X430236Y1621D03*
X430236Y1621D03*
X449055Y1621D03*
X449055Y1621D03*
X467874Y1621D03*
X467874Y1621D03*
X486692Y1621D03*
X486692Y1621D03*
X505511Y1621D03*
X505511Y1621D03*
X524330Y1621D03*
X524330Y1621D03*
X543149Y1621D03*
X543149Y1621D03*
X561968Y1621D03*
X561968Y1621D03*
X580787Y1621D03*
X580787Y1621D03*
X599606Y1621D03*
X599606Y1621D03*
X618425Y1621D03*
X618425Y1621D03*
X637244Y1621D03*
X637244Y1621D03*
X656062Y1621D03*
X656062Y1621D03*
X674881Y1621D03*
X674881Y1621D03*
X693700Y1621D03*
X693700Y1621D03*
X712519Y1621D03*
X712519Y1621D03*
X731338Y1621D03*
X731338Y1621D03*
X750157Y1621D03*
X750157Y1621D03*
X768976Y1621D03*
X768976Y1621D03*
X787795Y1621D03*
X787795Y1621D03*
X806614Y1621D03*
X806614Y1621D03*
X825433Y1621D03*
X825433Y1621D03*
G54D15*
X16220Y1621D03*
X35039Y1621D03*
X53858Y1621D03*
X72677Y1621D03*
X91496Y1621D03*
X110314Y1621D03*
X129133Y1621D03*
X147952Y1621D03*
X166771Y1621D03*
X185590Y1621D03*
X204409Y1621D03*
X223228Y1621D03*
X242047Y1621D03*
X260866Y1621D03*
X279685Y1621D03*
X298503Y1621D03*
X317322Y1621D03*
X336141Y1621D03*
X354960Y1621D03*
X373779Y1621D03*
X392598Y1621D03*
X411417Y1621D03*
X430236Y1621D03*
X449055Y1621D03*
X467874Y1621D03*
X486692Y1621D03*
X505511Y1621D03*
X524330Y1621D03*
X543149Y1621D03*
X561968Y1621D03*
X580787Y1621D03*
X599606Y1621D03*
X618425Y1621D03*
X637244Y1621D03*
X656062Y1621D03*
X674881Y1621D03*
X693700Y1621D03*
X712519Y1621D03*
X731338Y1621D03*
X750157Y1621D03*
X768976Y1621D03*
X787795Y1621D03*
X806614Y1621D03*
X825433Y1621D03*
G54D16*
X750157Y15125D03*
X731338Y15125D03*
X712519Y15125D03*
X693700Y15125D03*
X674881Y15125D03*
X656062Y15125D03*
X637244Y15125D03*
X618425Y15125D03*
X599606Y15125D03*
X580787Y15125D03*
X561968Y15125D03*
X543149Y15125D03*
X524330Y15125D03*
X505511Y15125D03*
X486692Y15125D03*
X467874Y15125D03*
X449055Y15125D03*
X430236Y15125D03*
X411417Y15125D03*
X392598Y15125D03*
X373779Y15125D03*
X354960Y15125D03*
X336141Y15125D03*
X317322Y15125D03*
X298503Y15125D03*
X279685Y15125D03*
X260866Y15125D03*
X242047Y15125D03*
X223228Y15125D03*
X204409Y15125D03*
X185590Y15125D03*
X166771Y15125D03*
X147952Y15125D03*
X129133Y15125D03*
X110314Y15125D03*
X91496Y15125D03*
X806614Y15125D03*
X787795Y15125D03*
X768976Y15125D03*
X72677Y15125D03*
X53858Y15125D03*
X35039Y15125D03*
X599606Y15125D03*
X185590Y15125D03*
X16220Y15125D03*
X16220Y15125D03*
G54D17*
X467874Y15794D03*
X486692Y15794D03*
X505511Y15794D03*
X524330Y15794D03*
X543149Y15794D03*
X561968Y15794D03*
X580787Y15794D03*
X599606Y15794D03*
X618425Y15794D03*
X637244Y15794D03*
X656062Y15794D03*
X674881Y15794D03*
X693700Y15794D03*
X712519Y15794D03*
X731338Y15794D03*
X750157Y15794D03*
X449055Y15794D03*
X354960Y15794D03*
X336141Y15794D03*
X317322Y15794D03*
X298503Y15794D03*
X279685Y15794D03*
X260866Y15794D03*
X242047Y15794D03*
X223228Y15794D03*
X204409Y15794D03*
X185590Y15794D03*
X147952Y15794D03*
X129133Y15794D03*
X110314Y15794D03*
X91496Y15794D03*
X166771Y15794D03*
X373740Y15636D03*
X392559Y15558D03*
X411456Y15558D03*
X430314Y15676D03*
X768976Y15794D03*
X787755Y15636D03*
X806574Y15558D03*
X72677Y15794D03*
X35078Y15558D03*
X53937Y15676D03*
X825472Y15558D03*
X16259Y15754D03*
G36*
X13976Y15125D02*
X13976Y15125D01*
X14763Y1542D01*
X15039Y3786D01*
X13976Y15125D01*
D02*G37*
G36*
X14763Y1542D02*
X14763Y1542D01*
X17716Y1542D01*
X18503Y15125D01*
X14763Y1542D01*
D02*G37*
G36*
X14763Y1542D02*
X14763Y1542D01*
X18503Y15125D01*
X13976Y15125D01*
X14763Y1542D01*
D02*G37*
G36*
X13976Y15125D02*
X13976Y15125D01*
X14763Y1542D01*
X15039Y3786D01*
X13976Y15125D01*
D02*G37*
G36*
X14763Y1542D02*
X14763Y1542D01*
X17716Y1542D01*
X18503Y15125D01*
X14763Y1542D01*
D02*G37*
G36*
X14763Y1542D02*
X14763Y1542D01*
X18503Y15125D01*
X13976Y15125D01*
X14763Y1542D01*
D02*G37*
G36*
X13976Y15125D02*
X13976Y15125D01*
X14763Y1542D01*
X15039Y3786D01*
X13976Y15125D01*
D02*G37*
G36*
X14763Y1542D02*
X14763Y1542D01*
X17716Y1542D01*
X18503Y15125D01*
X14763Y1542D01*
D02*G37*
G36*
X14763Y1542D02*
X14763Y1542D01*
X18503Y15125D01*
X13976Y15125D01*
X14763Y1542D01*
D02*G37*
G36*
X32795Y15125D02*
X32795Y15125D01*
X33582Y1542D01*
X33858Y3786D01*
X32795Y15125D01*
D02*G37*
G36*
X33582Y1542D02*
X33582Y1542D01*
X36535Y1542D01*
X37322Y15125D01*
X33582Y1542D01*
D02*G37*
G36*
X33582Y1542D02*
X33582Y1542D01*
X37322Y15125D01*
X32795Y15125D01*
X33582Y1542D01*
D02*G37*
G36*
X32795Y15125D02*
X32795Y15125D01*
X33582Y1542D01*
X33858Y3786D01*
X32795Y15125D01*
D02*G37*
G36*
X33582Y1542D02*
X33582Y1542D01*
X36535Y1542D01*
X37322Y15125D01*
X33582Y1542D01*
D02*G37*
G36*
X33582Y1542D02*
X33582Y1542D01*
X37322Y15125D01*
X32795Y15125D01*
X33582Y1542D01*
D02*G37*
G36*
X32795Y15125D02*
X32795Y15125D01*
X33582Y1542D01*
X33858Y3786D01*
X32795Y15125D01*
D02*G37*
G36*
X33582Y1542D02*
X33582Y1542D01*
X36535Y1542D01*
X37322Y15125D01*
X33582Y1542D01*
D02*G37*
G36*
X33582Y1542D02*
X33582Y1542D01*
X37322Y15125D01*
X32795Y15125D01*
X33582Y1542D01*
D02*G37*
G36*
X51614Y15125D02*
X51614Y15125D01*
X52401Y1542D01*
X52677Y3786D01*
X51614Y15125D01*
D02*G37*
G36*
X52401Y1542D02*
X52401Y1542D01*
X55354Y1542D01*
X56141Y15125D01*
X52401Y1542D01*
D02*G37*
G36*
X52401Y1542D02*
X52401Y1542D01*
X56141Y15125D01*
X51614Y15125D01*
X52401Y1542D01*
D02*G37*
G36*
X51614Y15125D02*
X51614Y15125D01*
X52401Y1542D01*
X52677Y3786D01*
X51614Y15125D01*
D02*G37*
G36*
X52401Y1542D02*
X52401Y1542D01*
X55354Y1542D01*
X56141Y15125D01*
X52401Y1542D01*
D02*G37*
G36*
X52401Y1542D02*
X52401Y1542D01*
X56141Y15125D01*
X51614Y15125D01*
X52401Y1542D01*
D02*G37*
G36*
X51614Y15125D02*
X51614Y15125D01*
X52401Y1542D01*
X52677Y3786D01*
X51614Y15125D01*
D02*G37*
G36*
X52401Y1542D02*
X52401Y1542D01*
X55354Y1542D01*
X56141Y15125D01*
X52401Y1542D01*
D02*G37*
G36*
X52401Y1542D02*
X52401Y1542D01*
X56141Y15125D01*
X51614Y15125D01*
X52401Y1542D01*
D02*G37*
G36*
X70433Y15125D02*
X70433Y15125D01*
X71220Y1542D01*
X71496Y3786D01*
X70433Y15125D01*
D02*G37*
G36*
X71220Y1542D02*
X71220Y1542D01*
X74173Y1542D01*
X74960Y15125D01*
X71220Y1542D01*
D02*G37*
G36*
X71220Y1542D02*
X71220Y1542D01*
X74960Y15125D01*
X70433Y15125D01*
X71220Y1542D01*
D02*G37*
G36*
X70433Y15125D02*
X70433Y15125D01*
X71220Y1542D01*
X71496Y3786D01*
X70433Y15125D01*
D02*G37*
G36*
X71220Y1542D02*
X71220Y1542D01*
X74173Y1542D01*
X74960Y15125D01*
X71220Y1542D01*
D02*G37*
G36*
X71220Y1542D02*
X71220Y1542D01*
X74960Y15125D01*
X70433Y15125D01*
X71220Y1542D01*
D02*G37*
G36*
X70433Y15125D02*
X70433Y15125D01*
X71220Y1542D01*
X71496Y3786D01*
X70433Y15125D01*
D02*G37*
G36*
X71220Y1542D02*
X71220Y1542D01*
X74173Y1542D01*
X74960Y15125D01*
X71220Y1542D01*
D02*G37*
G36*
X71220Y1542D02*
X71220Y1542D01*
X74960Y15125D01*
X70433Y15125D01*
X71220Y1542D01*
D02*G37*
G36*
X89251Y15125D02*
X89251Y15125D01*
X90039Y1542D01*
X90314Y3786D01*
X89251Y15125D01*
D02*G37*
G36*
X90039Y1542D02*
X90039Y1542D01*
X92992Y1542D01*
X93779Y15125D01*
X90039Y1542D01*
D02*G37*
G36*
X90039Y1542D02*
X90039Y1542D01*
X93779Y15125D01*
X89251Y15125D01*
X90039Y1542D01*
D02*G37*
G36*
X89251Y15125D02*
X89251Y15125D01*
X90039Y1542D01*
X90314Y3786D01*
X89251Y15125D01*
D02*G37*
G36*
X90039Y1542D02*
X90039Y1542D01*
X92992Y1542D01*
X93779Y15125D01*
X90039Y1542D01*
D02*G37*
G36*
X90039Y1542D02*
X90039Y1542D01*
X93779Y15125D01*
X89251Y15125D01*
X90039Y1542D01*
D02*G37*
G36*
X89251Y15125D02*
X89251Y15125D01*
X90039Y1542D01*
X90314Y3786D01*
X89251Y15125D01*
D02*G37*
G36*
X90039Y1542D02*
X90039Y1542D01*
X92992Y1542D01*
X93779Y15125D01*
X90039Y1542D01*
D02*G37*
G36*
X90039Y1542D02*
X90039Y1542D01*
X93779Y15125D01*
X89251Y15125D01*
X90039Y1542D01*
D02*G37*
G36*
X108070Y15125D02*
X108070Y15125D01*
X108858Y1542D01*
X109133Y3786D01*
X108070Y15125D01*
D02*G37*
G36*
X108858Y1542D02*
X108858Y1542D01*
X111811Y1542D01*
X112598Y15125D01*
X108858Y1542D01*
D02*G37*
G36*
X108858Y1542D02*
X108858Y1542D01*
X112598Y15125D01*
X108070Y15125D01*
X108858Y1542D01*
D02*G37*
G36*
X108070Y15125D02*
X108070Y15125D01*
X108858Y1542D01*
X109133Y3786D01*
X108070Y15125D01*
D02*G37*
G36*
X108858Y1542D02*
X108858Y1542D01*
X111811Y1542D01*
X112598Y15125D01*
X108858Y1542D01*
D02*G37*
G36*
X108858Y1542D02*
X108858Y1542D01*
X112598Y15125D01*
X108070Y15125D01*
X108858Y1542D01*
D02*G37*
G36*
X108070Y15125D02*
X108070Y15125D01*
X108858Y1542D01*
X109133Y3786D01*
X108070Y15125D01*
D02*G37*
G36*
X108858Y1542D02*
X108858Y1542D01*
X111811Y1542D01*
X112598Y15125D01*
X108858Y1542D01*
D02*G37*
G36*
X108858Y1542D02*
X108858Y1542D01*
X112598Y15125D01*
X108070Y15125D01*
X108858Y1542D01*
D02*G37*
G36*
X126889Y15125D02*
X126889Y15125D01*
X127677Y1542D01*
X127952Y3786D01*
X126889Y15125D01*
D02*G37*
G36*
X127677Y1542D02*
X127677Y1542D01*
X130629Y1542D01*
X131417Y15125D01*
X127677Y1542D01*
D02*G37*
G36*
X127677Y1542D02*
X127677Y1542D01*
X131417Y15125D01*
X126889Y15125D01*
X127677Y1542D01*
D02*G37*
G36*
X126889Y15125D02*
X126889Y15125D01*
X127677Y1542D01*
X127952Y3786D01*
X126889Y15125D01*
D02*G37*
G36*
X127677Y1542D02*
X127677Y1542D01*
X130629Y1542D01*
X131417Y15125D01*
X127677Y1542D01*
D02*G37*
G36*
X127677Y1542D02*
X127677Y1542D01*
X131417Y15125D01*
X126889Y15125D01*
X127677Y1542D01*
D02*G37*
G36*
X126889Y15125D02*
X126889Y15125D01*
X127677Y1542D01*
X127952Y3786D01*
X126889Y15125D01*
D02*G37*
G36*
X127677Y1542D02*
X127677Y1542D01*
X130629Y1542D01*
X131417Y15125D01*
X127677Y1542D01*
D02*G37*
G36*
X127677Y1542D02*
X127677Y1542D01*
X131417Y15125D01*
X126889Y15125D01*
X127677Y1542D01*
D02*G37*
G36*
X145708Y15125D02*
X145708Y15125D01*
X146496Y1542D01*
X146771Y3786D01*
X145708Y15125D01*
D02*G37*
G36*
X146496Y1542D02*
X146496Y1542D01*
X149448Y1542D01*
X150236Y15125D01*
X146496Y1542D01*
D02*G37*
G36*
X146496Y1542D02*
X146496Y1542D01*
X150236Y15125D01*
X145708Y15125D01*
X146496Y1542D01*
D02*G37*
G36*
X145708Y15125D02*
X145708Y15125D01*
X146496Y1542D01*
X146771Y3786D01*
X145708Y15125D01*
D02*G37*
G36*
X146496Y1542D02*
X146496Y1542D01*
X149448Y1542D01*
X150236Y15125D01*
X146496Y1542D01*
D02*G37*
G36*
X146496Y1542D02*
X146496Y1542D01*
X150236Y15125D01*
X145708Y15125D01*
X146496Y1542D01*
D02*G37*
G36*
X145708Y15125D02*
X145708Y15125D01*
X146496Y1542D01*
X146771Y3786D01*
X145708Y15125D01*
D02*G37*
G36*
X146496Y1542D02*
X146496Y1542D01*
X149448Y1542D01*
X150236Y15125D01*
X146496Y1542D01*
D02*G37*
G36*
X146496Y1542D02*
X146496Y1542D01*
X150236Y15125D01*
X145708Y15125D01*
X146496Y1542D01*
D02*G37*
G36*
X164527Y15125D02*
X164527Y15125D01*
X165314Y1542D01*
X165590Y3786D01*
X164527Y15125D01*
D02*G37*
G36*
X165314Y1542D02*
X165314Y1542D01*
X168267Y1542D01*
X169055Y15125D01*
X165314Y1542D01*
D02*G37*
G36*
X165314Y1542D02*
X165314Y1542D01*
X169055Y15125D01*
X164527Y15125D01*
X165314Y1542D01*
D02*G37*
G36*
X164527Y15125D02*
X164527Y15125D01*
X165314Y1542D01*
X165590Y3786D01*
X164527Y15125D01*
D02*G37*
G36*
X165314Y1542D02*
X165314Y1542D01*
X168267Y1542D01*
X169055Y15125D01*
X165314Y1542D01*
D02*G37*
G36*
X165314Y1542D02*
X165314Y1542D01*
X169055Y15125D01*
X164527Y15125D01*
X165314Y1542D01*
D02*G37*
G36*
X164527Y15125D02*
X164527Y15125D01*
X165314Y1542D01*
X165590Y3786D01*
X164527Y15125D01*
D02*G37*
G36*
X165314Y1542D02*
X165314Y1542D01*
X168267Y1542D01*
X169055Y15125D01*
X165314Y1542D01*
D02*G37*
G36*
X165314Y1542D02*
X165314Y1542D01*
X169055Y15125D01*
X164527Y15125D01*
X165314Y1542D01*
D02*G37*
G36*
X183346Y15125D02*
X183346Y15125D01*
X184133Y1542D01*
X184409Y3786D01*
X183346Y15125D01*
D02*G37*
G36*
X184133Y1542D02*
X184133Y1542D01*
X187086Y1542D01*
X187874Y15125D01*
X184133Y1542D01*
D02*G37*
G36*
X184133Y1542D02*
X184133Y1542D01*
X187874Y15125D01*
X183346Y15125D01*
X184133Y1542D01*
D02*G37*
G36*
X183346Y15125D02*
X183346Y15125D01*
X184133Y1542D01*
X184409Y3786D01*
X183346Y15125D01*
D02*G37*
G36*
X184133Y1542D02*
X184133Y1542D01*
X187086Y1542D01*
X187874Y15125D01*
X184133Y1542D01*
D02*G37*
G36*
X184133Y1542D02*
X184133Y1542D01*
X187874Y15125D01*
X183346Y15125D01*
X184133Y1542D01*
D02*G37*
G36*
X183346Y15125D02*
X183346Y15125D01*
X184133Y1542D01*
X184409Y3786D01*
X183346Y15125D01*
D02*G37*
G36*
X184133Y1542D02*
X184133Y1542D01*
X187086Y1542D01*
X187874Y15125D01*
X184133Y1542D01*
D02*G37*
G36*
X184133Y1542D02*
X184133Y1542D01*
X187874Y15125D01*
X183346Y15125D01*
X184133Y1542D01*
D02*G37*
G36*
X202165Y15125D02*
X202165Y15125D01*
X202952Y1542D01*
X203228Y3786D01*
X202165Y15125D01*
D02*G37*
G36*
X202952Y1542D02*
X202952Y1542D01*
X205905Y1542D01*
X206692Y15125D01*
X202952Y1542D01*
D02*G37*
G36*
X202952Y1542D02*
X202952Y1542D01*
X206692Y15125D01*
X202165Y15125D01*
X202952Y1542D01*
D02*G37*
G36*
X202165Y15125D02*
X202165Y15125D01*
X202952Y1542D01*
X203228Y3786D01*
X202165Y15125D01*
D02*G37*
G36*
X202952Y1542D02*
X202952Y1542D01*
X205905Y1542D01*
X206692Y15125D01*
X202952Y1542D01*
D02*G37*
G36*
X202952Y1542D02*
X202952Y1542D01*
X206692Y15125D01*
X202165Y15125D01*
X202952Y1542D01*
D02*G37*
G36*
X202165Y15125D02*
X202165Y15125D01*
X202952Y1542D01*
X203228Y3786D01*
X202165Y15125D01*
D02*G37*
G36*
X202952Y1542D02*
X202952Y1542D01*
X205905Y1542D01*
X206692Y15125D01*
X202952Y1542D01*
D02*G37*
G36*
X202952Y1542D02*
X202952Y1542D01*
X206692Y15125D01*
X202165Y15125D01*
X202952Y1542D01*
D02*G37*
G36*
X220984Y15125D02*
X220984Y15125D01*
X221771Y1542D01*
X222047Y3786D01*
X220984Y15125D01*
D02*G37*
G36*
X221771Y1542D02*
X221771Y1542D01*
X224724Y1542D01*
X225511Y15125D01*
X221771Y1542D01*
D02*G37*
G36*
X221771Y1542D02*
X221771Y1542D01*
X225511Y15125D01*
X220984Y15125D01*
X221771Y1542D01*
D02*G37*
G36*
X220984Y15125D02*
X220984Y15125D01*
X221771Y1542D01*
X222047Y3786D01*
X220984Y15125D01*
D02*G37*
G36*
X221771Y1542D02*
X221771Y1542D01*
X224724Y1542D01*
X225511Y15125D01*
X221771Y1542D01*
D02*G37*
G36*
X221771Y1542D02*
X221771Y1542D01*
X225511Y15125D01*
X220984Y15125D01*
X221771Y1542D01*
D02*G37*
G36*
X220984Y15125D02*
X220984Y15125D01*
X221771Y1542D01*
X222047Y3786D01*
X220984Y15125D01*
D02*G37*
G36*
X221771Y1542D02*
X221771Y1542D01*
X224724Y1542D01*
X225511Y15125D01*
X221771Y1542D01*
D02*G37*
G36*
X221771Y1542D02*
X221771Y1542D01*
X225511Y15125D01*
X220984Y15125D01*
X221771Y1542D01*
D02*G37*
G36*
X239803Y15125D02*
X239803Y15125D01*
X240590Y1542D01*
X240866Y3786D01*
X239803Y15125D01*
D02*G37*
G36*
X240590Y1542D02*
X240590Y1542D01*
X243543Y1542D01*
X244330Y15125D01*
X240590Y1542D01*
D02*G37*
G36*
X240590Y1542D02*
X240590Y1542D01*
X244330Y15125D01*
X239803Y15125D01*
X240590Y1542D01*
D02*G37*
G36*
X239803Y15125D02*
X239803Y15125D01*
X240590Y1542D01*
X240866Y3786D01*
X239803Y15125D01*
D02*G37*
G36*
X240590Y1542D02*
X240590Y1542D01*
X243543Y1542D01*
X244330Y15125D01*
X240590Y1542D01*
D02*G37*
G36*
X240590Y1542D02*
X240590Y1542D01*
X244330Y15125D01*
X239803Y15125D01*
X240590Y1542D01*
D02*G37*
G36*
X239803Y15125D02*
X239803Y15125D01*
X240590Y1542D01*
X240866Y3786D01*
X239803Y15125D01*
D02*G37*
G36*
X240590Y1542D02*
X240590Y1542D01*
X243543Y1542D01*
X244330Y15125D01*
X240590Y1542D01*
D02*G37*
G36*
X240590Y1542D02*
X240590Y1542D01*
X244330Y15125D01*
X239803Y15125D01*
X240590Y1542D01*
D02*G37*
G36*
X258622Y15125D02*
X258622Y15125D01*
X259409Y1542D01*
X259685Y3786D01*
X258622Y15125D01*
D02*G37*
G36*
X259409Y1542D02*
X259409Y1542D01*
X262362Y1542D01*
X263149Y15125D01*
X259409Y1542D01*
D02*G37*
G36*
X259409Y1542D02*
X259409Y1542D01*
X263149Y15125D01*
X258622Y15125D01*
X259409Y1542D01*
D02*G37*
G36*
X258622Y15125D02*
X258622Y15125D01*
X259409Y1542D01*
X259685Y3786D01*
X258622Y15125D01*
D02*G37*
G36*
X259409Y1542D02*
X259409Y1542D01*
X262362Y1542D01*
X263149Y15125D01*
X259409Y1542D01*
D02*G37*
G36*
X259409Y1542D02*
X259409Y1542D01*
X263149Y15125D01*
X258622Y15125D01*
X259409Y1542D01*
D02*G37*
G36*
X258622Y15125D02*
X258622Y15125D01*
X259409Y1542D01*
X259685Y3786D01*
X258622Y15125D01*
D02*G37*
G36*
X259409Y1542D02*
X259409Y1542D01*
X262362Y1542D01*
X263149Y15125D01*
X259409Y1542D01*
D02*G37*
G36*
X259409Y1542D02*
X259409Y1542D01*
X263149Y15125D01*
X258622Y15125D01*
X259409Y1542D01*
D02*G37*
G36*
X277440Y15125D02*
X277440Y15125D01*
X278228Y1542D01*
X278503Y3786D01*
X277440Y15125D01*
D02*G37*
G36*
X278228Y1542D02*
X278228Y1542D01*
X281181Y1542D01*
X281968Y15125D01*
X278228Y1542D01*
D02*G37*
G36*
X278228Y1542D02*
X278228Y1542D01*
X281968Y15125D01*
X277440Y15125D01*
X278228Y1542D01*
D02*G37*
G36*
X277440Y15125D02*
X277440Y15125D01*
X278228Y1542D01*
X278503Y3786D01*
X277440Y15125D01*
D02*G37*
G36*
X278228Y1542D02*
X278228Y1542D01*
X281181Y1542D01*
X281968Y15125D01*
X278228Y1542D01*
D02*G37*
G36*
X278228Y1542D02*
X278228Y1542D01*
X281968Y15125D01*
X277440Y15125D01*
X278228Y1542D01*
D02*G37*
G36*
X277440Y15125D02*
X277440Y15125D01*
X278228Y1542D01*
X278503Y3786D01*
X277440Y15125D01*
D02*G37*
G36*
X278228Y1542D02*
X278228Y1542D01*
X281181Y1542D01*
X281968Y15125D01*
X278228Y1542D01*
D02*G37*
G36*
X278228Y1542D02*
X278228Y1542D01*
X281968Y15125D01*
X277440Y15125D01*
X278228Y1542D01*
D02*G37*
G36*
X296259Y15125D02*
X296259Y15125D01*
X297047Y1542D01*
X297322Y3786D01*
X296259Y15125D01*
D02*G37*
G36*
X297047Y1542D02*
X297047Y1542D01*
X300000Y1542D01*
X300787Y15125D01*
X297047Y1542D01*
D02*G37*
G36*
X297047Y1542D02*
X297047Y1542D01*
X300787Y15125D01*
X296259Y15125D01*
X297047Y1542D01*
D02*G37*
G36*
X296259Y15125D02*
X296259Y15125D01*
X297047Y1542D01*
X297322Y3786D01*
X296259Y15125D01*
D02*G37*
G36*
X297047Y1542D02*
X297047Y1542D01*
X300000Y1542D01*
X300787Y15125D01*
X297047Y1542D01*
D02*G37*
G36*
X297047Y1542D02*
X297047Y1542D01*
X300787Y15125D01*
X296259Y15125D01*
X297047Y1542D01*
D02*G37*
G36*
X296259Y15125D02*
X296259Y15125D01*
X297047Y1542D01*
X297322Y3786D01*
X296259Y15125D01*
D02*G37*
G36*
X297047Y1542D02*
X297047Y1542D01*
X300000Y1542D01*
X300787Y15125D01*
X297047Y1542D01*
D02*G37*
G36*
X297047Y1542D02*
X297047Y1542D01*
X300787Y15125D01*
X296259Y15125D01*
X297047Y1542D01*
D02*G37*
G36*
X315078Y15125D02*
X315078Y15125D01*
X315866Y1542D01*
X316141Y3786D01*
X315078Y15125D01*
D02*G37*
G36*
X315866Y1542D02*
X315866Y1542D01*
X318818Y1542D01*
X319606Y15125D01*
X315866Y1542D01*
D02*G37*
G36*
X315866Y1542D02*
X315866Y1542D01*
X319606Y15125D01*
X315078Y15125D01*
X315866Y1542D01*
D02*G37*
G36*
X315078Y15125D02*
X315078Y15125D01*
X315866Y1542D01*
X316141Y3786D01*
X315078Y15125D01*
D02*G37*
G36*
X315866Y1542D02*
X315866Y1542D01*
X318818Y1542D01*
X319606Y15125D01*
X315866Y1542D01*
D02*G37*
G36*
X315866Y1542D02*
X315866Y1542D01*
X319606Y15125D01*
X315078Y15125D01*
X315866Y1542D01*
D02*G37*
G36*
X315078Y15125D02*
X315078Y15125D01*
X315866Y1542D01*
X316141Y3786D01*
X315078Y15125D01*
D02*G37*
G36*
X315866Y1542D02*
X315866Y1542D01*
X318818Y1542D01*
X319606Y15125D01*
X315866Y1542D01*
D02*G37*
G36*
X315866Y1542D02*
X315866Y1542D01*
X319606Y15125D01*
X315078Y15125D01*
X315866Y1542D01*
D02*G37*
G36*
X333897Y15125D02*
X333897Y15125D01*
X334685Y1542D01*
X334960Y3786D01*
X333897Y15125D01*
D02*G37*
G36*
X334685Y1542D02*
X334685Y1542D01*
X337637Y1542D01*
X338425Y15125D01*
X334685Y1542D01*
D02*G37*
G36*
X334685Y1542D02*
X334685Y1542D01*
X338425Y15125D01*
X333897Y15125D01*
X334685Y1542D01*
D02*G37*
G36*
X333897Y15125D02*
X333897Y15125D01*
X334685Y1542D01*
X334960Y3786D01*
X333897Y15125D01*
D02*G37*
G36*
X334685Y1542D02*
X334685Y1542D01*
X337637Y1542D01*
X338425Y15125D01*
X334685Y1542D01*
D02*G37*
G36*
X334685Y1542D02*
X334685Y1542D01*
X338425Y15125D01*
X333897Y15125D01*
X334685Y1542D01*
D02*G37*
G36*
X333897Y15125D02*
X333897Y15125D01*
X334685Y1542D01*
X334960Y3786D01*
X333897Y15125D01*
D02*G37*
G36*
X334685Y1542D02*
X334685Y1542D01*
X337637Y1542D01*
X338425Y15125D01*
X334685Y1542D01*
D02*G37*
G36*
X334685Y1542D02*
X334685Y1542D01*
X338425Y15125D01*
X333897Y15125D01*
X334685Y1542D01*
D02*G37*
G36*
X352716Y15125D02*
X352716Y15125D01*
X353503Y1542D01*
X353779Y3786D01*
X352716Y15125D01*
D02*G37*
G36*
X353503Y1542D02*
X353503Y1542D01*
X356456Y1542D01*
X357244Y15125D01*
X353503Y1542D01*
D02*G37*
G36*
X353503Y1542D02*
X353503Y1542D01*
X357244Y15125D01*
X352716Y15125D01*
X353503Y1542D01*
D02*G37*
G36*
X352716Y15125D02*
X352716Y15125D01*
X353503Y1542D01*
X353779Y3786D01*
X352716Y15125D01*
D02*G37*
G36*
X353503Y1542D02*
X353503Y1542D01*
X356456Y1542D01*
X357244Y15125D01*
X353503Y1542D01*
D02*G37*
G36*
X353503Y1542D02*
X353503Y1542D01*
X357244Y15125D01*
X352716Y15125D01*
X353503Y1542D01*
D02*G37*
G36*
X352716Y15125D02*
X352716Y15125D01*
X353503Y1542D01*
X353779Y3786D01*
X352716Y15125D01*
D02*G37*
G36*
X353503Y1542D02*
X353503Y1542D01*
X356456Y1542D01*
X357244Y15125D01*
X353503Y1542D01*
D02*G37*
G36*
X353503Y1542D02*
X353503Y1542D01*
X357244Y15125D01*
X352716Y15125D01*
X353503Y1542D01*
D02*G37*
G36*
X371535Y15125D02*
X371535Y15125D01*
X372322Y1542D01*
X372598Y3786D01*
X371535Y15125D01*
D02*G37*
G36*
X372322Y1542D02*
X372322Y1542D01*
X375275Y1542D01*
X376062Y15125D01*
X372322Y1542D01*
D02*G37*
G36*
X372322Y1542D02*
X372322Y1542D01*
X376062Y15125D01*
X371535Y15125D01*
X372322Y1542D01*
D02*G37*
G36*
X371535Y15125D02*
X371535Y15125D01*
X372322Y1542D01*
X372598Y3786D01*
X371535Y15125D01*
D02*G37*
G36*
X372322Y1542D02*
X372322Y1542D01*
X375275Y1542D01*
X376062Y15125D01*
X372322Y1542D01*
D02*G37*
G36*
X372322Y1542D02*
X372322Y1542D01*
X376062Y15125D01*
X371535Y15125D01*
X372322Y1542D01*
D02*G37*
G36*
X371535Y15125D02*
X371535Y15125D01*
X372322Y1542D01*
X372598Y3786D01*
X371535Y15125D01*
D02*G37*
G36*
X372322Y1542D02*
X372322Y1542D01*
X375275Y1542D01*
X376062Y15125D01*
X372322Y1542D01*
D02*G37*
G36*
X372322Y1542D02*
X372322Y1542D01*
X376062Y15125D01*
X371535Y15125D01*
X372322Y1542D01*
D02*G37*
G36*
X390354Y15125D02*
X390354Y15125D01*
X391141Y1542D01*
X391417Y3786D01*
X390354Y15125D01*
D02*G37*
G36*
X391141Y1542D02*
X391141Y1542D01*
X394094Y1542D01*
X394881Y15125D01*
X391141Y1542D01*
D02*G37*
G36*
X391141Y1542D02*
X391141Y1542D01*
X394881Y15125D01*
X390354Y15125D01*
X391141Y1542D01*
D02*G37*
G36*
X390354Y15125D02*
X390354Y15125D01*
X391141Y1542D01*
X391417Y3786D01*
X390354Y15125D01*
D02*G37*
G36*
X391141Y1542D02*
X391141Y1542D01*
X394094Y1542D01*
X394881Y15125D01*
X391141Y1542D01*
D02*G37*
G36*
X391141Y1542D02*
X391141Y1542D01*
X394881Y15125D01*
X390354Y15125D01*
X391141Y1542D01*
D02*G37*
G36*
X390354Y15125D02*
X390354Y15125D01*
X391141Y1542D01*
X391417Y3786D01*
X390354Y15125D01*
D02*G37*
G36*
X391141Y1542D02*
X391141Y1542D01*
X394094Y1542D01*
X394881Y15125D01*
X391141Y1542D01*
D02*G37*
G36*
X391141Y1542D02*
X391141Y1542D01*
X394881Y15125D01*
X390354Y15125D01*
X391141Y1542D01*
D02*G37*
G36*
X409173Y15125D02*
X409173Y15125D01*
X409960Y1542D01*
X410236Y3786D01*
X409173Y15125D01*
D02*G37*
G36*
X409960Y1542D02*
X409960Y1542D01*
X412913Y1542D01*
X413700Y15125D01*
X409960Y1542D01*
D02*G37*
G36*
X409960Y1542D02*
X409960Y1542D01*
X413700Y15125D01*
X409173Y15125D01*
X409960Y1542D01*
D02*G37*
G36*
X409173Y15125D02*
X409173Y15125D01*
X409960Y1542D01*
X410236Y3786D01*
X409173Y15125D01*
D02*G37*
G36*
X409960Y1542D02*
X409960Y1542D01*
X412913Y1542D01*
X413700Y15125D01*
X409960Y1542D01*
D02*G37*
G36*
X409960Y1542D02*
X409960Y1542D01*
X413700Y15125D01*
X409173Y15125D01*
X409960Y1542D01*
D02*G37*
G36*
X409173Y15125D02*
X409173Y15125D01*
X409960Y1542D01*
X410236Y3786D01*
X409173Y15125D01*
D02*G37*
G36*
X409960Y1542D02*
X409960Y1542D01*
X412913Y1542D01*
X413700Y15125D01*
X409960Y1542D01*
D02*G37*
G36*
X409960Y1542D02*
X409960Y1542D01*
X413700Y15125D01*
X409173Y15125D01*
X409960Y1542D01*
D02*G37*
G36*
X427992Y15125D02*
X427992Y15125D01*
X428779Y1542D01*
X429055Y3786D01*
X427992Y15125D01*
D02*G37*
G36*
X428779Y1542D02*
X428779Y1542D01*
X431732Y1542D01*
X432519Y15125D01*
X428779Y1542D01*
D02*G37*
G36*
X428779Y1542D02*
X428779Y1542D01*
X432519Y15125D01*
X427992Y15125D01*
X428779Y1542D01*
D02*G37*
G36*
X427992Y15125D02*
X427992Y15125D01*
X428779Y1542D01*
X429055Y3786D01*
X427992Y15125D01*
D02*G37*
G36*
X428779Y1542D02*
X428779Y1542D01*
X431732Y1542D01*
X432519Y15125D01*
X428779Y1542D01*
D02*G37*
G36*
X428779Y1542D02*
X428779Y1542D01*
X432519Y15125D01*
X427992Y15125D01*
X428779Y1542D01*
D02*G37*
G36*
X427992Y15125D02*
X427992Y15125D01*
X428779Y1542D01*
X429055Y3786D01*
X427992Y15125D01*
D02*G37*
G36*
X428779Y1542D02*
X428779Y1542D01*
X431732Y1542D01*
X432519Y15125D01*
X428779Y1542D01*
D02*G37*
G36*
X428779Y1542D02*
X428779Y1542D01*
X432519Y15125D01*
X427992Y15125D01*
X428779Y1542D01*
D02*G37*
G36*
X446811Y15125D02*
X446811Y15125D01*
X447598Y1542D01*
X447874Y3786D01*
X446811Y15125D01*
D02*G37*
G36*
X447598Y1542D02*
X447598Y1542D01*
X450551Y1542D01*
X451338Y15125D01*
X447598Y1542D01*
D02*G37*
G36*
X447598Y1542D02*
X447598Y1542D01*
X451338Y15125D01*
X446811Y15125D01*
X447598Y1542D01*
D02*G37*
G36*
X446811Y15125D02*
X446811Y15125D01*
X447598Y1542D01*
X447874Y3786D01*
X446811Y15125D01*
D02*G37*
G36*
X447598Y1542D02*
X447598Y1542D01*
X450551Y1542D01*
X451338Y15125D01*
X447598Y1542D01*
D02*G37*
G36*
X447598Y1542D02*
X447598Y1542D01*
X451338Y15125D01*
X446811Y15125D01*
X447598Y1542D01*
D02*G37*
G36*
X446811Y15125D02*
X446811Y15125D01*
X447598Y1542D01*
X447874Y3786D01*
X446811Y15125D01*
D02*G37*
G36*
X447598Y1542D02*
X447598Y1542D01*
X450551Y1542D01*
X451338Y15125D01*
X447598Y1542D01*
D02*G37*
G36*
X447598Y1542D02*
X447598Y1542D01*
X451338Y15125D01*
X446811Y15125D01*
X447598Y1542D01*
D02*G37*
G36*
X465629Y15125D02*
X465629Y15125D01*
X466417Y1542D01*
X466692Y3786D01*
X465629Y15125D01*
D02*G37*
G36*
X466417Y1542D02*
X466417Y1542D01*
X469370Y1542D01*
X470157Y15125D01*
X466417Y1542D01*
D02*G37*
G36*
X466417Y1542D02*
X466417Y1542D01*
X470157Y15125D01*
X465629Y15125D01*
X466417Y1542D01*
D02*G37*
G36*
X465629Y15125D02*
X465629Y15125D01*
X466417Y1542D01*
X466692Y3786D01*
X465629Y15125D01*
D02*G37*
G36*
X466417Y1542D02*
X466417Y1542D01*
X469370Y1542D01*
X470157Y15125D01*
X466417Y1542D01*
D02*G37*
G36*
X466417Y1542D02*
X466417Y1542D01*
X470157Y15125D01*
X465629Y15125D01*
X466417Y1542D01*
D02*G37*
G36*
X465629Y15125D02*
X465629Y15125D01*
X466417Y1542D01*
X466692Y3786D01*
X465629Y15125D01*
D02*G37*
G36*
X466417Y1542D02*
X466417Y1542D01*
X469370Y1542D01*
X470157Y15125D01*
X466417Y1542D01*
D02*G37*
G36*
X466417Y1542D02*
X466417Y1542D01*
X470157Y15125D01*
X465629Y15125D01*
X466417Y1542D01*
D02*G37*
G36*
X484448Y15125D02*
X484448Y15125D01*
X485236Y1542D01*
X485511Y3786D01*
X484448Y15125D01*
D02*G37*
G36*
X485236Y1542D02*
X485236Y1542D01*
X488188Y1542D01*
X488976Y15125D01*
X485236Y1542D01*
D02*G37*
G36*
X485236Y1542D02*
X485236Y1542D01*
X488976Y15125D01*
X484448Y15125D01*
X485236Y1542D01*
D02*G37*
G36*
X484448Y15125D02*
X484448Y15125D01*
X485236Y1542D01*
X485511Y3786D01*
X484448Y15125D01*
D02*G37*
G36*
X485236Y1542D02*
X485236Y1542D01*
X488188Y1542D01*
X488976Y15125D01*
X485236Y1542D01*
D02*G37*
G36*
X485236Y1542D02*
X485236Y1542D01*
X488976Y15125D01*
X484448Y15125D01*
X485236Y1542D01*
D02*G37*
G36*
X484448Y15125D02*
X484448Y15125D01*
X485236Y1542D01*
X485511Y3786D01*
X484448Y15125D01*
D02*G37*
G36*
X485236Y1542D02*
X485236Y1542D01*
X488188Y1542D01*
X488976Y15125D01*
X485236Y1542D01*
D02*G37*
G36*
X485236Y1542D02*
X485236Y1542D01*
X488976Y15125D01*
X484448Y15125D01*
X485236Y1542D01*
D02*G37*
G36*
X503267Y15125D02*
X503267Y15125D01*
X504055Y1542D01*
X504330Y3786D01*
X503267Y15125D01*
D02*G37*
G36*
X504055Y1542D02*
X504055Y1542D01*
X507007Y1542D01*
X507795Y15125D01*
X504055Y1542D01*
D02*G37*
G36*
X504055Y1542D02*
X504055Y1542D01*
X507795Y15125D01*
X503267Y15125D01*
X504055Y1542D01*
D02*G37*
G36*
X503267Y15125D02*
X503267Y15125D01*
X504055Y1542D01*
X504330Y3786D01*
X503267Y15125D01*
D02*G37*
G36*
X504055Y1542D02*
X504055Y1542D01*
X507007Y1542D01*
X507795Y15125D01*
X504055Y1542D01*
D02*G37*
G36*
X504055Y1542D02*
X504055Y1542D01*
X507795Y15125D01*
X503267Y15125D01*
X504055Y1542D01*
D02*G37*
G36*
X503267Y15125D02*
X503267Y15125D01*
X504055Y1542D01*
X504330Y3786D01*
X503267Y15125D01*
D02*G37*
G36*
X504055Y1542D02*
X504055Y1542D01*
X507007Y1542D01*
X507795Y15125D01*
X504055Y1542D01*
D02*G37*
G36*
X504055Y1542D02*
X504055Y1542D01*
X507795Y15125D01*
X503267Y15125D01*
X504055Y1542D01*
D02*G37*
G36*
X522086Y15125D02*
X522086Y15125D01*
X522874Y1542D01*
X523149Y3786D01*
X522086Y15125D01*
D02*G37*
G36*
X522874Y1542D02*
X522874Y1542D01*
X525826Y1542D01*
X526614Y15125D01*
X522874Y1542D01*
D02*G37*
G36*
X522874Y1542D02*
X522874Y1542D01*
X526614Y15125D01*
X522086Y15125D01*
X522874Y1542D01*
D02*G37*
G36*
X522086Y15125D02*
X522086Y15125D01*
X522874Y1542D01*
X523149Y3786D01*
X522086Y15125D01*
D02*G37*
G36*
X522874Y1542D02*
X522874Y1542D01*
X525826Y1542D01*
X526614Y15125D01*
X522874Y1542D01*
D02*G37*
G36*
X522874Y1542D02*
X522874Y1542D01*
X526614Y15125D01*
X522086Y15125D01*
X522874Y1542D01*
D02*G37*
G36*
X522086Y15125D02*
X522086Y15125D01*
X522874Y1542D01*
X523149Y3786D01*
X522086Y15125D01*
D02*G37*
G36*
X522874Y1542D02*
X522874Y1542D01*
X525826Y1542D01*
X526614Y15125D01*
X522874Y1542D01*
D02*G37*
G36*
X522874Y1542D02*
X522874Y1542D01*
X526614Y15125D01*
X522086Y15125D01*
X522874Y1542D01*
D02*G37*
G36*
X540905Y15125D02*
X540905Y15125D01*
X541692Y1542D01*
X541968Y3786D01*
X540905Y15125D01*
D02*G37*
G36*
X541692Y1542D02*
X541692Y1542D01*
X544645Y1542D01*
X545433Y15125D01*
X541692Y1542D01*
D02*G37*
G36*
X541692Y1542D02*
X541692Y1542D01*
X545433Y15125D01*
X540905Y15125D01*
X541692Y1542D01*
D02*G37*
G36*
X540905Y15125D02*
X540905Y15125D01*
X541692Y1542D01*
X541968Y3786D01*
X540905Y15125D01*
D02*G37*
G36*
X541692Y1542D02*
X541692Y1542D01*
X544645Y1542D01*
X545433Y15125D01*
X541692Y1542D01*
D02*G37*
G36*
X541692Y1542D02*
X541692Y1542D01*
X545433Y15125D01*
X540905Y15125D01*
X541692Y1542D01*
D02*G37*
G36*
X540905Y15125D02*
X540905Y15125D01*
X541692Y1542D01*
X541968Y3786D01*
X540905Y15125D01*
D02*G37*
G36*
X541692Y1542D02*
X541692Y1542D01*
X544645Y1542D01*
X545433Y15125D01*
X541692Y1542D01*
D02*G37*
G36*
X541692Y1542D02*
X541692Y1542D01*
X545433Y15125D01*
X540905Y15125D01*
X541692Y1542D01*
D02*G37*
G36*
X559724Y15125D02*
X559724Y15125D01*
X560511Y1542D01*
X560787Y3786D01*
X559724Y15125D01*
D02*G37*
G36*
X560511Y1542D02*
X560511Y1542D01*
X563464Y1542D01*
X564251Y15125D01*
X560511Y1542D01*
D02*G37*
G36*
X560511Y1542D02*
X560511Y1542D01*
X564251Y15125D01*
X559724Y15125D01*
X560511Y1542D01*
D02*G37*
G36*
X559724Y15125D02*
X559724Y15125D01*
X560511Y1542D01*
X560787Y3786D01*
X559724Y15125D01*
D02*G37*
G36*
X560511Y1542D02*
X560511Y1542D01*
X563464Y1542D01*
X564251Y15125D01*
X560511Y1542D01*
D02*G37*
G36*
X560511Y1542D02*
X560511Y1542D01*
X564251Y15125D01*
X559724Y15125D01*
X560511Y1542D01*
D02*G37*
G36*
X559724Y15125D02*
X559724Y15125D01*
X560511Y1542D01*
X560787Y3786D01*
X559724Y15125D01*
D02*G37*
G36*
X560511Y1542D02*
X560511Y1542D01*
X563464Y1542D01*
X564251Y15125D01*
X560511Y1542D01*
D02*G37*
G36*
X560511Y1542D02*
X560511Y1542D01*
X564251Y15125D01*
X559724Y15125D01*
X560511Y1542D01*
D02*G37*
G36*
X578543Y15125D02*
X578543Y15125D01*
X579330Y1542D01*
X579606Y3786D01*
X578543Y15125D01*
D02*G37*
G36*
X579330Y1542D02*
X579330Y1542D01*
X582283Y1542D01*
X583070Y15125D01*
X579330Y1542D01*
D02*G37*
G36*
X579330Y1542D02*
X579330Y1542D01*
X583070Y15125D01*
X578543Y15125D01*
X579330Y1542D01*
D02*G37*
G36*
X578543Y15125D02*
X578543Y15125D01*
X579330Y1542D01*
X579606Y3786D01*
X578543Y15125D01*
D02*G37*
G36*
X579330Y1542D02*
X579330Y1542D01*
X582283Y1542D01*
X583070Y15125D01*
X579330Y1542D01*
D02*G37*
G36*
X579330Y1542D02*
X579330Y1542D01*
X583070Y15125D01*
X578543Y15125D01*
X579330Y1542D01*
D02*G37*
G36*
X578543Y15125D02*
X578543Y15125D01*
X579330Y1542D01*
X579606Y3786D01*
X578543Y15125D01*
D02*G37*
G36*
X579330Y1542D02*
X579330Y1542D01*
X582283Y1542D01*
X583070Y15125D01*
X579330Y1542D01*
D02*G37*
G36*
X579330Y1542D02*
X579330Y1542D01*
X583070Y15125D01*
X578543Y15125D01*
X579330Y1542D01*
D02*G37*
G36*
X597362Y15125D02*
X597362Y15125D01*
X598149Y1542D01*
X598425Y3786D01*
X597362Y15125D01*
D02*G37*
G36*
X598149Y1542D02*
X598149Y1542D01*
X601102Y1542D01*
X601889Y15125D01*
X598149Y1542D01*
D02*G37*
G36*
X598149Y1542D02*
X598149Y1542D01*
X601889Y15125D01*
X597362Y15125D01*
X598149Y1542D01*
D02*G37*
G36*
X597362Y15125D02*
X597362Y15125D01*
X598149Y1542D01*
X598425Y3786D01*
X597362Y15125D01*
D02*G37*
G36*
X598149Y1542D02*
X598149Y1542D01*
X601102Y1542D01*
X601889Y15125D01*
X598149Y1542D01*
D02*G37*
G36*
X598149Y1542D02*
X598149Y1542D01*
X601889Y15125D01*
X597362Y15125D01*
X598149Y1542D01*
D02*G37*
G36*
X597362Y15125D02*
X597362Y15125D01*
X598149Y1542D01*
X598425Y3786D01*
X597362Y15125D01*
D02*G37*
G36*
X598149Y1542D02*
X598149Y1542D01*
X601102Y1542D01*
X601889Y15125D01*
X598149Y1542D01*
D02*G37*
G36*
X598149Y1542D02*
X598149Y1542D01*
X601889Y15125D01*
X597362Y15125D01*
X598149Y1542D01*
D02*G37*
G36*
X616181Y15125D02*
X616181Y15125D01*
X616968Y1542D01*
X617244Y3786D01*
X616181Y15125D01*
D02*G37*
G36*
X616968Y1542D02*
X616968Y1542D01*
X619921Y1542D01*
X620708Y15125D01*
X616968Y1542D01*
D02*G37*
G36*
X616968Y1542D02*
X616968Y1542D01*
X620708Y15125D01*
X616181Y15125D01*
X616968Y1542D01*
D02*G37*
G36*
X616181Y15125D02*
X616181Y15125D01*
X616968Y1542D01*
X617244Y3786D01*
X616181Y15125D01*
D02*G37*
G36*
X616968Y1542D02*
X616968Y1542D01*
X619921Y1542D01*
X620708Y15125D01*
X616968Y1542D01*
D02*G37*
G36*
X616968Y1542D02*
X616968Y1542D01*
X620708Y15125D01*
X616181Y15125D01*
X616968Y1542D01*
D02*G37*
G36*
X616181Y15125D02*
X616181Y15125D01*
X616968Y1542D01*
X617244Y3786D01*
X616181Y15125D01*
D02*G37*
G36*
X616968Y1542D02*
X616968Y1542D01*
X619921Y1542D01*
X620708Y15125D01*
X616968Y1542D01*
D02*G37*
G36*
X616968Y1542D02*
X616968Y1542D01*
X620708Y15125D01*
X616181Y15125D01*
X616968Y1542D01*
D02*G37*
G36*
X635000Y15125D02*
X635000Y15125D01*
X635787Y1542D01*
X636062Y3786D01*
X635000Y15125D01*
D02*G37*
G36*
X635787Y1542D02*
X635787Y1542D01*
X638740Y1542D01*
X639527Y15125D01*
X635787Y1542D01*
D02*G37*
G36*
X635787Y1542D02*
X635787Y1542D01*
X639527Y15125D01*
X635000Y15125D01*
X635787Y1542D01*
D02*G37*
G36*
X635000Y15125D02*
X635000Y15125D01*
X635787Y1542D01*
X636062Y3786D01*
X635000Y15125D01*
D02*G37*
G36*
X635787Y1542D02*
X635787Y1542D01*
X638740Y1542D01*
X639527Y15125D01*
X635787Y1542D01*
D02*G37*
G36*
X635787Y1542D02*
X635787Y1542D01*
X639527Y15125D01*
X635000Y15125D01*
X635787Y1542D01*
D02*G37*
G36*
X635000Y15125D02*
X635000Y15125D01*
X635787Y1542D01*
X636062Y3786D01*
X635000Y15125D01*
D02*G37*
G36*
X635787Y1542D02*
X635787Y1542D01*
X638740Y1542D01*
X639527Y15125D01*
X635787Y1542D01*
D02*G37*
G36*
X635787Y1542D02*
X635787Y1542D01*
X639527Y15125D01*
X635000Y15125D01*
X635787Y1542D01*
D02*G37*
G36*
X653818Y15125D02*
X653818Y15125D01*
X654606Y1542D01*
X654881Y3786D01*
X653818Y15125D01*
D02*G37*
G36*
X654606Y1542D02*
X654606Y1542D01*
X657559Y1542D01*
X658346Y15125D01*
X654606Y1542D01*
D02*G37*
G36*
X654606Y1542D02*
X654606Y1542D01*
X658346Y15125D01*
X653818Y15125D01*
X654606Y1542D01*
D02*G37*
G36*
X653818Y15125D02*
X653818Y15125D01*
X654606Y1542D01*
X654881Y3786D01*
X653818Y15125D01*
D02*G37*
G36*
X654606Y1542D02*
X654606Y1542D01*
X657559Y1542D01*
X658346Y15125D01*
X654606Y1542D01*
D02*G37*
G36*
X654606Y1542D02*
X654606Y1542D01*
X658346Y15125D01*
X653818Y15125D01*
X654606Y1542D01*
D02*G37*
G36*
X653818Y15125D02*
X653818Y15125D01*
X654606Y1542D01*
X654881Y3786D01*
X653818Y15125D01*
D02*G37*
G36*
X654606Y1542D02*
X654606Y1542D01*
X657559Y1542D01*
X658346Y15125D01*
X654606Y1542D01*
D02*G37*
G36*
X654606Y1542D02*
X654606Y1542D01*
X658346Y15125D01*
X653818Y15125D01*
X654606Y1542D01*
D02*G37*
G36*
X672637Y15125D02*
X672637Y15125D01*
X673425Y1542D01*
X673700Y3786D01*
X672637Y15125D01*
D02*G37*
G36*
X673425Y1542D02*
X673425Y1542D01*
X676377Y1542D01*
X677165Y15125D01*
X673425Y1542D01*
D02*G37*
G36*
X673425Y1542D02*
X673425Y1542D01*
X677165Y15125D01*
X672637Y15125D01*
X673425Y1542D01*
D02*G37*
G36*
X672637Y15125D02*
X672637Y15125D01*
X673425Y1542D01*
X673700Y3786D01*
X672637Y15125D01*
D02*G37*
G36*
X673425Y1542D02*
X673425Y1542D01*
X676377Y1542D01*
X677165Y15125D01*
X673425Y1542D01*
D02*G37*
G36*
X673425Y1542D02*
X673425Y1542D01*
X677165Y15125D01*
X672637Y15125D01*
X673425Y1542D01*
D02*G37*
G36*
X672637Y15125D02*
X672637Y15125D01*
X673425Y1542D01*
X673700Y3786D01*
X672637Y15125D01*
D02*G37*
G36*
X673425Y1542D02*
X673425Y1542D01*
X676377Y1542D01*
X677165Y15125D01*
X673425Y1542D01*
D02*G37*
G36*
X673425Y1542D02*
X673425Y1542D01*
X677165Y15125D01*
X672637Y15125D01*
X673425Y1542D01*
D02*G37*
G36*
X691456Y15125D02*
X691456Y15125D01*
X692244Y1542D01*
X692519Y3786D01*
X691456Y15125D01*
D02*G37*
G36*
X692244Y1542D02*
X692244Y1542D01*
X695196Y1542D01*
X695984Y15125D01*
X692244Y1542D01*
D02*G37*
G36*
X692244Y1542D02*
X692244Y1542D01*
X695984Y15125D01*
X691456Y15125D01*
X692244Y1542D01*
D02*G37*
G36*
X691456Y15125D02*
X691456Y15125D01*
X692244Y1542D01*
X692519Y3786D01*
X691456Y15125D01*
D02*G37*
G36*
X692244Y1542D02*
X692244Y1542D01*
X695196Y1542D01*
X695984Y15125D01*
X692244Y1542D01*
D02*G37*
G36*
X692244Y1542D02*
X692244Y1542D01*
X695984Y15125D01*
X691456Y15125D01*
X692244Y1542D01*
D02*G37*
G36*
X691456Y15125D02*
X691456Y15125D01*
X692244Y1542D01*
X692519Y3786D01*
X691456Y15125D01*
D02*G37*
G36*
X692244Y1542D02*
X692244Y1542D01*
X695196Y1542D01*
X695984Y15125D01*
X692244Y1542D01*
D02*G37*
G36*
X692244Y1542D02*
X692244Y1542D01*
X695984Y15125D01*
X691456Y15125D01*
X692244Y1542D01*
D02*G37*
G36*
X710275Y15125D02*
X710275Y15125D01*
X711062Y1542D01*
X711338Y3786D01*
X710275Y15125D01*
D02*G37*
G36*
X711062Y1542D02*
X711062Y1542D01*
X714015Y1542D01*
X714803Y15125D01*
X711062Y1542D01*
D02*G37*
G36*
X711062Y1542D02*
X711062Y1542D01*
X714803Y15125D01*
X710275Y15125D01*
X711062Y1542D01*
D02*G37*
G36*
X710275Y15125D02*
X710275Y15125D01*
X711062Y1542D01*
X711338Y3786D01*
X710275Y15125D01*
D02*G37*
G36*
X711062Y1542D02*
X711062Y1542D01*
X714015Y1542D01*
X714803Y15125D01*
X711062Y1542D01*
D02*G37*
G36*
X711062Y1542D02*
X711062Y1542D01*
X714803Y15125D01*
X710275Y15125D01*
X711062Y1542D01*
D02*G37*
G36*
X710275Y15125D02*
X710275Y15125D01*
X711062Y1542D01*
X711338Y3786D01*
X710275Y15125D01*
D02*G37*
G36*
X711062Y1542D02*
X711062Y1542D01*
X714015Y1542D01*
X714803Y15125D01*
X711062Y1542D01*
D02*G37*
G36*
X711062Y1542D02*
X711062Y1542D01*
X714803Y15125D01*
X710275Y15125D01*
X711062Y1542D01*
D02*G37*
G36*
X729094Y15125D02*
X729094Y15125D01*
X729881Y1542D01*
X730157Y3786D01*
X729094Y15125D01*
D02*G37*
G36*
X729881Y1542D02*
X729881Y1542D01*
X732834Y1542D01*
X733622Y15125D01*
X729881Y1542D01*
D02*G37*
G36*
X729881Y1542D02*
X729881Y1542D01*
X733622Y15125D01*
X729094Y15125D01*
X729881Y1542D01*
D02*G37*
G36*
X729094Y15125D02*
X729094Y15125D01*
X729881Y1542D01*
X730157Y3786D01*
X729094Y15125D01*
D02*G37*
G36*
X729881Y1542D02*
X729881Y1542D01*
X732834Y1542D01*
X733622Y15125D01*
X729881Y1542D01*
D02*G37*
G36*
X729881Y1542D02*
X729881Y1542D01*
X733622Y15125D01*
X729094Y15125D01*
X729881Y1542D01*
D02*G37*
G36*
X729094Y15125D02*
X729094Y15125D01*
X729881Y1542D01*
X730157Y3786D01*
X729094Y15125D01*
D02*G37*
G36*
X729881Y1542D02*
X729881Y1542D01*
X732834Y1542D01*
X733622Y15125D01*
X729881Y1542D01*
D02*G37*
G36*
X729881Y1542D02*
X729881Y1542D01*
X733622Y15125D01*
X729094Y15125D01*
X729881Y1542D01*
D02*G37*
G36*
X747913Y15125D02*
X747913Y15125D01*
X748700Y1542D01*
X748976Y3786D01*
X747913Y15125D01*
D02*G37*
G36*
X748700Y1542D02*
X748700Y1542D01*
X751653Y1542D01*
X752440Y15125D01*
X748700Y1542D01*
D02*G37*
G36*
X748700Y1542D02*
X748700Y1542D01*
X752440Y15125D01*
X747913Y15125D01*
X748700Y1542D01*
D02*G37*
G36*
X747913Y15125D02*
X747913Y15125D01*
X748700Y1542D01*
X748976Y3786D01*
X747913Y15125D01*
D02*G37*
G36*
X748700Y1542D02*
X748700Y1542D01*
X751653Y1542D01*
X752440Y15125D01*
X748700Y1542D01*
D02*G37*
G36*
X748700Y1542D02*
X748700Y1542D01*
X752440Y15125D01*
X747913Y15125D01*
X748700Y1542D01*
D02*G37*
G36*
X747913Y15125D02*
X747913Y15125D01*
X748700Y1542D01*
X748976Y3786D01*
X747913Y15125D01*
D02*G37*
G36*
X748700Y1542D02*
X748700Y1542D01*
X751653Y1542D01*
X752440Y15125D01*
X748700Y1542D01*
D02*G37*
G36*
X748700Y1542D02*
X748700Y1542D01*
X752440Y15125D01*
X747913Y15125D01*
X748700Y1542D01*
D02*G37*
G36*
X766732Y15125D02*
X766732Y15125D01*
X767519Y1542D01*
X767795Y3786D01*
X766732Y15125D01*
D02*G37*
G36*
X767519Y1542D02*
X767519Y1542D01*
X770472Y1542D01*
X771259Y15125D01*
X767519Y1542D01*
D02*G37*
G36*
X767519Y1542D02*
X767519Y1542D01*
X771259Y15125D01*
X766732Y15125D01*
X767519Y1542D01*
D02*G37*
G36*
X766732Y15125D02*
X766732Y15125D01*
X767519Y1542D01*
X767795Y3786D01*
X766732Y15125D01*
D02*G37*
G36*
X767519Y1542D02*
X767519Y1542D01*
X770472Y1542D01*
X771259Y15125D01*
X767519Y1542D01*
D02*G37*
G36*
X767519Y1542D02*
X767519Y1542D01*
X771259Y15125D01*
X766732Y15125D01*
X767519Y1542D01*
D02*G37*
G36*
X766732Y15125D02*
X766732Y15125D01*
X767519Y1542D01*
X767795Y3786D01*
X766732Y15125D01*
D02*G37*
G36*
X767519Y1542D02*
X767519Y1542D01*
X770472Y1542D01*
X771259Y15125D01*
X767519Y1542D01*
D02*G37*
G36*
X767519Y1542D02*
X767519Y1542D01*
X771259Y15125D01*
X766732Y15125D01*
X767519Y1542D01*
D02*G37*
G36*
X785551Y15125D02*
X785551Y15125D01*
X786338Y1542D01*
X786614Y3786D01*
X785551Y15125D01*
D02*G37*
G36*
X786338Y1542D02*
X786338Y1542D01*
X789291Y1542D01*
X790078Y15125D01*
X786338Y1542D01*
D02*G37*
G36*
X786338Y1542D02*
X786338Y1542D01*
X790078Y15125D01*
X785551Y15125D01*
X786338Y1542D01*
D02*G37*
G36*
X785551Y15125D02*
X785551Y15125D01*
X786338Y1542D01*
X786614Y3786D01*
X785551Y15125D01*
D02*G37*
G36*
X786338Y1542D02*
X786338Y1542D01*
X789291Y1542D01*
X790078Y15125D01*
X786338Y1542D01*
D02*G37*
G36*
X786338Y1542D02*
X786338Y1542D01*
X790078Y15125D01*
X785551Y15125D01*
X786338Y1542D01*
D02*G37*
G36*
X785551Y15125D02*
X785551Y15125D01*
X786338Y1542D01*
X786614Y3786D01*
X785551Y15125D01*
D02*G37*
G36*
X786338Y1542D02*
X786338Y1542D01*
X789291Y1542D01*
X790078Y15125D01*
X786338Y1542D01*
D02*G37*
G36*
X786338Y1542D02*
X786338Y1542D01*
X790078Y15125D01*
X785551Y15125D01*
X786338Y1542D01*
D02*G37*
G36*
X804370Y15125D02*
X804370Y15125D01*
X805157Y1542D01*
X805433Y3786D01*
X804370Y15125D01*
D02*G37*
G36*
X805157Y1542D02*
X805157Y1542D01*
X808110Y1542D01*
X808897Y15125D01*
X805157Y1542D01*
D02*G37*
G36*
X805157Y1542D02*
X805157Y1542D01*
X808897Y15125D01*
X804370Y15125D01*
X805157Y1542D01*
D02*G37*
G36*
X804370Y15125D02*
X804370Y15125D01*
X805157Y1542D01*
X805433Y3786D01*
X804370Y15125D01*
D02*G37*
G36*
X805157Y1542D02*
X805157Y1542D01*
X808110Y1542D01*
X808897Y15125D01*
X805157Y1542D01*
D02*G37*
G36*
X805157Y1542D02*
X805157Y1542D01*
X808897Y15125D01*
X804370Y15125D01*
X805157Y1542D01*
D02*G37*
G36*
X804370Y15125D02*
X804370Y15125D01*
X805157Y1542D01*
X805433Y3786D01*
X804370Y15125D01*
D02*G37*
G36*
X805157Y1542D02*
X805157Y1542D01*
X808110Y1542D01*
X808897Y15125D01*
X805157Y1542D01*
D02*G37*
G36*
X805157Y1542D02*
X805157Y1542D01*
X808897Y15125D01*
X804370Y15125D01*
X805157Y1542D01*
D02*G37*
G36*
X823188Y15125D02*
X823188Y15125D01*
X823976Y1542D01*
X824251Y3786D01*
X823188Y15125D01*
D02*G37*
G36*
X823976Y1542D02*
X823976Y1542D01*
X826929Y1542D01*
X827716Y15125D01*
X823976Y1542D01*
D02*G37*
G36*
X823976Y1542D02*
X823976Y1542D01*
X827716Y15125D01*
X823188Y15125D01*
X823976Y1542D01*
D02*G37*
G36*
X823188Y15125D02*
X823188Y15125D01*
X823976Y1542D01*
X824251Y3786D01*
X823188Y15125D01*
D02*G37*
G36*
X823976Y1542D02*
X823976Y1542D01*
X826929Y1542D01*
X827716Y15125D01*
X823976Y1542D01*
D02*G37*
G36*
X823976Y1542D02*
X823976Y1542D01*
X827716Y15125D01*
X823188Y15125D01*
X823976Y1542D01*
D02*G37*
G36*
X823188Y15125D02*
X823188Y15125D01*
X823976Y1542D01*
X824251Y3786D01*
X823188Y15125D01*
D02*G37*
G36*
X823976Y1542D02*
X823976Y1542D01*
X826929Y1542D01*
X827716Y15125D01*
X823976Y1542D01*
D02*G37*
G36*
X823976Y1542D02*
X823976Y1542D01*
X827716Y15125D01*
X823188Y15125D01*
X823976Y1542D01*
D02*G37*
M02*
