%FSLAX35Y35*%
%MOIN*%
%IN*%
%ADD10C,0.00591*%
%ADD11C,0.00061*%
%ADD12C,0.00394*%
%ADD13C,0.00409*%
%ADD14C,0.02598*%
%ADD15C,0.02992*%
%ADD16C,0.03937*%
%ADD17C,0.08661*%
%AMR_18*21,1,0.03937,0.19685,0,0,0.000*%
%ADD18R_18*%
%AMR_19*21,1,0.04646,0.03346,0,0,0.000*%
%ADD19R_19*%
%AMR_20*21,1,0.13780,0.19685,0,0,0.000*%
%ADD20R_20*%
%AMR_21*21,1,0.19685,0.18819,0,0,0.000*%
%ADD21R_21*%
%AMR_22*21,1,0.19685,0.19685,0,0,0.000*%
%ADD22R_22*%
G54D14*
X17598Y1621D03*
X17598Y1621D03*
X36417Y1621D03*
X36417Y1621D03*
X55236Y1621D03*
X55236Y1621D03*
X74055Y1621D03*
X74055Y1621D03*
X92874Y1621D03*
X92874Y1621D03*
X111692Y1621D03*
X111692Y1621D03*
X130511Y1621D03*
X130511Y1621D03*
X149330Y1621D03*
X149330Y1621D03*
X168149Y1621D03*
X168149Y1621D03*
X186968Y1621D03*
X186968Y1621D03*
X205787Y1621D03*
X205787Y1621D03*
X224606Y1621D03*
X224606Y1621D03*
X243425Y1621D03*
X243425Y1621D03*
X262244Y1621D03*
X262244Y1621D03*
X281062Y1621D03*
X281062Y1621D03*
X299881Y1621D03*
X299881Y1621D03*
X318700Y1621D03*
X318700Y1621D03*
X337519Y1621D03*
X337519Y1621D03*
X356338Y1621D03*
X356338Y1621D03*
X375157Y1621D03*
X375157Y1621D03*
X393976Y1621D03*
X393976Y1621D03*
X412795Y1621D03*
X412795Y1621D03*
X431614Y1621D03*
X431614Y1621D03*
X450433Y1621D03*
X450433Y1621D03*
X469251Y1621D03*
X469251Y1621D03*
X488070Y1621D03*
X488070Y1621D03*
X506889Y1621D03*
X506889Y1621D03*
X525708Y1621D03*
X525708Y1621D03*
X544527Y1621D03*
X544527Y1621D03*
X563346Y1621D03*
X563346Y1621D03*
X582165Y1621D03*
X582165Y1621D03*
X600984Y1621D03*
X600984Y1621D03*
X619803Y1621D03*
X619803Y1621D03*
X638622Y1621D03*
X638622Y1621D03*
X657440Y1621D03*
X657440Y1621D03*
X676259Y1621D03*
X676259Y1621D03*
X695078Y1621D03*
X695078Y1621D03*
X713897Y1621D03*
X713897Y1621D03*
X732716Y1621D03*
X732716Y1621D03*
X751535Y1621D03*
X751535Y1621D03*
X770354Y1621D03*
X770354Y1621D03*
X789173Y1621D03*
X789173Y1621D03*
X807992Y1621D03*
X807992Y1621D03*
X826811Y1621D03*
X826811Y1621D03*
G54D15*
X17598Y1621D03*
X36417Y1621D03*
X55236Y1621D03*
X74055Y1621D03*
X92874Y1621D03*
X111692Y1621D03*
X130511Y1621D03*
X149330Y1621D03*
X168149Y1621D03*
X186968Y1621D03*
X205787Y1621D03*
X224606Y1621D03*
X243425Y1621D03*
X262244Y1621D03*
X281062Y1621D03*
X299881Y1621D03*
X318700Y1621D03*
X337519Y1621D03*
X356338Y1621D03*
X375157Y1621D03*
X393976Y1621D03*
X412795Y1621D03*
X431614Y1621D03*
X450433Y1621D03*
X469251Y1621D03*
X488070Y1621D03*
X506889Y1621D03*
X525708Y1621D03*
X544527Y1621D03*
X563346Y1621D03*
X582165Y1621D03*
X600984Y1621D03*
X619803Y1621D03*
X638622Y1621D03*
X657440Y1621D03*
X676259Y1621D03*
X695078Y1621D03*
X713897Y1621D03*
X732716Y1621D03*
X751535Y1621D03*
X770354Y1621D03*
X789173Y1621D03*
X807992Y1621D03*
X826811Y1621D03*
G54D16*
X751535Y15125D03*
X732716Y15125D03*
X713897Y15125D03*
X695078Y15125D03*
X676259Y15125D03*
X657440Y15125D03*
X638622Y15125D03*
X619803Y15125D03*
X600984Y15125D03*
X582165Y15125D03*
X563346Y15125D03*
X544527Y15125D03*
X525708Y15125D03*
X506889Y15125D03*
X488070Y15125D03*
X469251Y15125D03*
X450433Y15125D03*
X431614Y15125D03*
X412795Y15125D03*
X393976Y15125D03*
X375157Y15125D03*
X356338Y15125D03*
X337519Y15125D03*
X318700Y15125D03*
X299881Y15125D03*
X281062Y15125D03*
X262244Y15125D03*
X243425Y15125D03*
X224606Y15125D03*
X205787Y15125D03*
X186968Y15125D03*
X168149Y15125D03*
X149330Y15125D03*
X130511Y15125D03*
X111692Y15125D03*
X92874Y15125D03*
X807992Y15125D03*
X789173Y15125D03*
X770354Y15125D03*
X74055Y15125D03*
X55236Y15125D03*
X36417Y15125D03*
X600984Y15125D03*
X186968Y15125D03*
X17598Y15125D03*
X17598Y15125D03*
G54D17*
X469251Y15794D03*
X488070Y15794D03*
X506889Y15794D03*
X525708Y15794D03*
X544527Y15794D03*
X563346Y15794D03*
X582165Y15794D03*
X600984Y15794D03*
X619803Y15794D03*
X638622Y15794D03*
X657440Y15794D03*
X676259Y15794D03*
X695078Y15794D03*
X713897Y15794D03*
X732716Y15794D03*
X751535Y15794D03*
X450433Y15794D03*
X356338Y15794D03*
X337519Y15794D03*
X318700Y15794D03*
X299881Y15794D03*
X281062Y15794D03*
X262244Y15794D03*
X243425Y15794D03*
X224606Y15794D03*
X205787Y15794D03*
X186968Y15794D03*
X149330Y15794D03*
X130511Y15794D03*
X111692Y15794D03*
X92874Y15794D03*
X168149Y15794D03*
X375118Y15636D03*
X393937Y15558D03*
X412834Y15558D03*
X431692Y15676D03*
X770354Y15794D03*
X789133Y15636D03*
X807952Y15558D03*
X74055Y15794D03*
X36456Y15558D03*
X55314Y15676D03*
X826850Y15558D03*
X17637Y15754D03*
G36*
X15354Y15125D02*
X15354Y15125D01*
X16141Y1542D01*
X16417Y3786D01*
X15354Y15125D01*
D02*G37*
G36*
X16141Y1542D02*
X16141Y1542D01*
X19094Y1542D01*
X19881Y15125D01*
X16141Y1542D01*
D02*G37*
G36*
X16141Y1542D02*
X16141Y1542D01*
X19881Y15125D01*
X15354Y15125D01*
X16141Y1542D01*
D02*G37*
G36*
X15354Y15125D02*
X15354Y15125D01*
X16141Y1542D01*
X16417Y3786D01*
X15354Y15125D01*
D02*G37*
G36*
X16141Y1542D02*
X16141Y1542D01*
X19094Y1542D01*
X19881Y15125D01*
X16141Y1542D01*
D02*G37*
G36*
X16141Y1542D02*
X16141Y1542D01*
X19881Y15125D01*
X15354Y15125D01*
X16141Y1542D01*
D02*G37*
G36*
X15354Y15125D02*
X15354Y15125D01*
X16141Y1542D01*
X16417Y3786D01*
X15354Y15125D01*
D02*G37*
G36*
X16141Y1542D02*
X16141Y1542D01*
X19094Y1542D01*
X19881Y15125D01*
X16141Y1542D01*
D02*G37*
G36*
X16141Y1542D02*
X16141Y1542D01*
X19881Y15125D01*
X15354Y15125D01*
X16141Y1542D01*
D02*G37*
G36*
X34173Y15125D02*
X34173Y15125D01*
X34960Y1542D01*
X35236Y3786D01*
X34173Y15125D01*
D02*G37*
G36*
X34960Y1542D02*
X34960Y1542D01*
X37913Y1542D01*
X38700Y15125D01*
X34960Y1542D01*
D02*G37*
G36*
X34960Y1542D02*
X34960Y1542D01*
X38700Y15125D01*
X34173Y15125D01*
X34960Y1542D01*
D02*G37*
G36*
X34173Y15125D02*
X34173Y15125D01*
X34960Y1542D01*
X35236Y3786D01*
X34173Y15125D01*
D02*G37*
G36*
X34960Y1542D02*
X34960Y1542D01*
X37913Y1542D01*
X38700Y15125D01*
X34960Y1542D01*
D02*G37*
G36*
X34960Y1542D02*
X34960Y1542D01*
X38700Y15125D01*
X34173Y15125D01*
X34960Y1542D01*
D02*G37*
G36*
X34173Y15125D02*
X34173Y15125D01*
X34960Y1542D01*
X35236Y3786D01*
X34173Y15125D01*
D02*G37*
G36*
X34960Y1542D02*
X34960Y1542D01*
X37913Y1542D01*
X38700Y15125D01*
X34960Y1542D01*
D02*G37*
G36*
X34960Y1542D02*
X34960Y1542D01*
X38700Y15125D01*
X34173Y15125D01*
X34960Y1542D01*
D02*G37*
G36*
X52992Y15125D02*
X52992Y15125D01*
X53779Y1542D01*
X54055Y3786D01*
X52992Y15125D01*
D02*G37*
G36*
X53779Y1542D02*
X53779Y1542D01*
X56732Y1542D01*
X57519Y15125D01*
X53779Y1542D01*
D02*G37*
G36*
X53779Y1542D02*
X53779Y1542D01*
X57519Y15125D01*
X52992Y15125D01*
X53779Y1542D01*
D02*G37*
G36*
X52992Y15125D02*
X52992Y15125D01*
X53779Y1542D01*
X54055Y3786D01*
X52992Y15125D01*
D02*G37*
G36*
X53779Y1542D02*
X53779Y1542D01*
X56732Y1542D01*
X57519Y15125D01*
X53779Y1542D01*
D02*G37*
G36*
X53779Y1542D02*
X53779Y1542D01*
X57519Y15125D01*
X52992Y15125D01*
X53779Y1542D01*
D02*G37*
G36*
X52992Y15125D02*
X52992Y15125D01*
X53779Y1542D01*
X54055Y3786D01*
X52992Y15125D01*
D02*G37*
G36*
X53779Y1542D02*
X53779Y1542D01*
X56732Y1542D01*
X57519Y15125D01*
X53779Y1542D01*
D02*G37*
G36*
X53779Y1542D02*
X53779Y1542D01*
X57519Y15125D01*
X52992Y15125D01*
X53779Y1542D01*
D02*G37*
G36*
X71811Y15125D02*
X71811Y15125D01*
X72598Y1542D01*
X72874Y3786D01*
X71811Y15125D01*
D02*G37*
G36*
X72598Y1542D02*
X72598Y1542D01*
X75551Y1542D01*
X76338Y15125D01*
X72598Y1542D01*
D02*G37*
G36*
X72598Y1542D02*
X72598Y1542D01*
X76338Y15125D01*
X71811Y15125D01*
X72598Y1542D01*
D02*G37*
G36*
X71811Y15125D02*
X71811Y15125D01*
X72598Y1542D01*
X72874Y3786D01*
X71811Y15125D01*
D02*G37*
G36*
X72598Y1542D02*
X72598Y1542D01*
X75551Y1542D01*
X76338Y15125D01*
X72598Y1542D01*
D02*G37*
G36*
X72598Y1542D02*
X72598Y1542D01*
X76338Y15125D01*
X71811Y15125D01*
X72598Y1542D01*
D02*G37*
G36*
X71811Y15125D02*
X71811Y15125D01*
X72598Y1542D01*
X72874Y3786D01*
X71811Y15125D01*
D02*G37*
G36*
X72598Y1542D02*
X72598Y1542D01*
X75551Y1542D01*
X76338Y15125D01*
X72598Y1542D01*
D02*G37*
G36*
X72598Y1542D02*
X72598Y1542D01*
X76338Y15125D01*
X71811Y15125D01*
X72598Y1542D01*
D02*G37*
G36*
X90629Y15125D02*
X90629Y15125D01*
X91417Y1542D01*
X91692Y3786D01*
X90629Y15125D01*
D02*G37*
G36*
X91417Y1542D02*
X91417Y1542D01*
X94370Y1542D01*
X95157Y15125D01*
X91417Y1542D01*
D02*G37*
G36*
X91417Y1542D02*
X91417Y1542D01*
X95157Y15125D01*
X90629Y15125D01*
X91417Y1542D01*
D02*G37*
G36*
X90629Y15125D02*
X90629Y15125D01*
X91417Y1542D01*
X91692Y3786D01*
X90629Y15125D01*
D02*G37*
G36*
X91417Y1542D02*
X91417Y1542D01*
X94370Y1542D01*
X95157Y15125D01*
X91417Y1542D01*
D02*G37*
G36*
X91417Y1542D02*
X91417Y1542D01*
X95157Y15125D01*
X90629Y15125D01*
X91417Y1542D01*
D02*G37*
G36*
X90629Y15125D02*
X90629Y15125D01*
X91417Y1542D01*
X91692Y3786D01*
X90629Y15125D01*
D02*G37*
G36*
X91417Y1542D02*
X91417Y1542D01*
X94370Y1542D01*
X95157Y15125D01*
X91417Y1542D01*
D02*G37*
G36*
X91417Y1542D02*
X91417Y1542D01*
X95157Y15125D01*
X90629Y15125D01*
X91417Y1542D01*
D02*G37*
G36*
X109448Y15125D02*
X109448Y15125D01*
X110236Y1542D01*
X110511Y3786D01*
X109448Y15125D01*
D02*G37*
G36*
X110236Y1542D02*
X110236Y1542D01*
X113188Y1542D01*
X113976Y15125D01*
X110236Y1542D01*
D02*G37*
G36*
X110236Y1542D02*
X110236Y1542D01*
X113976Y15125D01*
X109448Y15125D01*
X110236Y1542D01*
D02*G37*
G36*
X109448Y15125D02*
X109448Y15125D01*
X110236Y1542D01*
X110511Y3786D01*
X109448Y15125D01*
D02*G37*
G36*
X110236Y1542D02*
X110236Y1542D01*
X113188Y1542D01*
X113976Y15125D01*
X110236Y1542D01*
D02*G37*
G36*
X110236Y1542D02*
X110236Y1542D01*
X113976Y15125D01*
X109448Y15125D01*
X110236Y1542D01*
D02*G37*
G36*
X109448Y15125D02*
X109448Y15125D01*
X110236Y1542D01*
X110511Y3786D01*
X109448Y15125D01*
D02*G37*
G36*
X110236Y1542D02*
X110236Y1542D01*
X113188Y1542D01*
X113976Y15125D01*
X110236Y1542D01*
D02*G37*
G36*
X110236Y1542D02*
X110236Y1542D01*
X113976Y15125D01*
X109448Y15125D01*
X110236Y1542D01*
D02*G37*
G36*
X128267Y15125D02*
X128267Y15125D01*
X129055Y1542D01*
X129330Y3786D01*
X128267Y15125D01*
D02*G37*
G36*
X129055Y1542D02*
X129055Y1542D01*
X132007Y1542D01*
X132795Y15125D01*
X129055Y1542D01*
D02*G37*
G36*
X129055Y1542D02*
X129055Y1542D01*
X132795Y15125D01*
X128267Y15125D01*
X129055Y1542D01*
D02*G37*
G36*
X128267Y15125D02*
X128267Y15125D01*
X129055Y1542D01*
X129330Y3786D01*
X128267Y15125D01*
D02*G37*
G36*
X129055Y1542D02*
X129055Y1542D01*
X132007Y1542D01*
X132795Y15125D01*
X129055Y1542D01*
D02*G37*
G36*
X129055Y1542D02*
X129055Y1542D01*
X132795Y15125D01*
X128267Y15125D01*
X129055Y1542D01*
D02*G37*
G36*
X128267Y15125D02*
X128267Y15125D01*
X129055Y1542D01*
X129330Y3786D01*
X128267Y15125D01*
D02*G37*
G36*
X129055Y1542D02*
X129055Y1542D01*
X132007Y1542D01*
X132795Y15125D01*
X129055Y1542D01*
D02*G37*
G36*
X129055Y1542D02*
X129055Y1542D01*
X132795Y15125D01*
X128267Y15125D01*
X129055Y1542D01*
D02*G37*
G36*
X147086Y15125D02*
X147086Y15125D01*
X147874Y1542D01*
X148149Y3786D01*
X147086Y15125D01*
D02*G37*
G36*
X147874Y1542D02*
X147874Y1542D01*
X150826Y1542D01*
X151614Y15125D01*
X147874Y1542D01*
D02*G37*
G36*
X147874Y1542D02*
X147874Y1542D01*
X151614Y15125D01*
X147086Y15125D01*
X147874Y1542D01*
D02*G37*
G36*
X147086Y15125D02*
X147086Y15125D01*
X147874Y1542D01*
X148149Y3786D01*
X147086Y15125D01*
D02*G37*
G36*
X147874Y1542D02*
X147874Y1542D01*
X150826Y1542D01*
X151614Y15125D01*
X147874Y1542D01*
D02*G37*
G36*
X147874Y1542D02*
X147874Y1542D01*
X151614Y15125D01*
X147086Y15125D01*
X147874Y1542D01*
D02*G37*
G36*
X147086Y15125D02*
X147086Y15125D01*
X147874Y1542D01*
X148149Y3786D01*
X147086Y15125D01*
D02*G37*
G36*
X147874Y1542D02*
X147874Y1542D01*
X150826Y1542D01*
X151614Y15125D01*
X147874Y1542D01*
D02*G37*
G36*
X147874Y1542D02*
X147874Y1542D01*
X151614Y15125D01*
X147086Y15125D01*
X147874Y1542D01*
D02*G37*
G36*
X165905Y15125D02*
X165905Y15125D01*
X166692Y1542D01*
X166968Y3786D01*
X165905Y15125D01*
D02*G37*
G36*
X166692Y1542D02*
X166692Y1542D01*
X169645Y1542D01*
X170433Y15125D01*
X166692Y1542D01*
D02*G37*
G36*
X166692Y1542D02*
X166692Y1542D01*
X170433Y15125D01*
X165905Y15125D01*
X166692Y1542D01*
D02*G37*
G36*
X165905Y15125D02*
X165905Y15125D01*
X166692Y1542D01*
X166968Y3786D01*
X165905Y15125D01*
D02*G37*
G36*
X166692Y1542D02*
X166692Y1542D01*
X169645Y1542D01*
X170433Y15125D01*
X166692Y1542D01*
D02*G37*
G36*
X166692Y1542D02*
X166692Y1542D01*
X170433Y15125D01*
X165905Y15125D01*
X166692Y1542D01*
D02*G37*
G36*
X165905Y15125D02*
X165905Y15125D01*
X166692Y1542D01*
X166968Y3786D01*
X165905Y15125D01*
D02*G37*
G36*
X166692Y1542D02*
X166692Y1542D01*
X169645Y1542D01*
X170433Y15125D01*
X166692Y1542D01*
D02*G37*
G36*
X166692Y1542D02*
X166692Y1542D01*
X170433Y15125D01*
X165905Y15125D01*
X166692Y1542D01*
D02*G37*
G36*
X184724Y15125D02*
X184724Y15125D01*
X185511Y1542D01*
X185787Y3786D01*
X184724Y15125D01*
D02*G37*
G36*
X185511Y1542D02*
X185511Y1542D01*
X188464Y1542D01*
X189251Y15125D01*
X185511Y1542D01*
D02*G37*
G36*
X185511Y1542D02*
X185511Y1542D01*
X189251Y15125D01*
X184724Y15125D01*
X185511Y1542D01*
D02*G37*
G36*
X184724Y15125D02*
X184724Y15125D01*
X185511Y1542D01*
X185787Y3786D01*
X184724Y15125D01*
D02*G37*
G36*
X185511Y1542D02*
X185511Y1542D01*
X188464Y1542D01*
X189251Y15125D01*
X185511Y1542D01*
D02*G37*
G36*
X185511Y1542D02*
X185511Y1542D01*
X189251Y15125D01*
X184724Y15125D01*
X185511Y1542D01*
D02*G37*
G36*
X184724Y15125D02*
X184724Y15125D01*
X185511Y1542D01*
X185787Y3786D01*
X184724Y15125D01*
D02*G37*
G36*
X185511Y1542D02*
X185511Y1542D01*
X188464Y1542D01*
X189251Y15125D01*
X185511Y1542D01*
D02*G37*
G36*
X185511Y1542D02*
X185511Y1542D01*
X189251Y15125D01*
X184724Y15125D01*
X185511Y1542D01*
D02*G37*
G36*
X203543Y15125D02*
X203543Y15125D01*
X204330Y1542D01*
X204606Y3786D01*
X203543Y15125D01*
D02*G37*
G36*
X204330Y1542D02*
X204330Y1542D01*
X207283Y1542D01*
X208070Y15125D01*
X204330Y1542D01*
D02*G37*
G36*
X204330Y1542D02*
X204330Y1542D01*
X208070Y15125D01*
X203543Y15125D01*
X204330Y1542D01*
D02*G37*
G36*
X203543Y15125D02*
X203543Y15125D01*
X204330Y1542D01*
X204606Y3786D01*
X203543Y15125D01*
D02*G37*
G36*
X204330Y1542D02*
X204330Y1542D01*
X207283Y1542D01*
X208070Y15125D01*
X204330Y1542D01*
D02*G37*
G36*
X204330Y1542D02*
X204330Y1542D01*
X208070Y15125D01*
X203543Y15125D01*
X204330Y1542D01*
D02*G37*
G36*
X203543Y15125D02*
X203543Y15125D01*
X204330Y1542D01*
X204606Y3786D01*
X203543Y15125D01*
D02*G37*
G36*
X204330Y1542D02*
X204330Y1542D01*
X207283Y1542D01*
X208070Y15125D01*
X204330Y1542D01*
D02*G37*
G36*
X204330Y1542D02*
X204330Y1542D01*
X208070Y15125D01*
X203543Y15125D01*
X204330Y1542D01*
D02*G37*
G36*
X222362Y15125D02*
X222362Y15125D01*
X223149Y1542D01*
X223425Y3786D01*
X222362Y15125D01*
D02*G37*
G36*
X223149Y1542D02*
X223149Y1542D01*
X226102Y1542D01*
X226889Y15125D01*
X223149Y1542D01*
D02*G37*
G36*
X223149Y1542D02*
X223149Y1542D01*
X226889Y15125D01*
X222362Y15125D01*
X223149Y1542D01*
D02*G37*
G36*
X222362Y15125D02*
X222362Y15125D01*
X223149Y1542D01*
X223425Y3786D01*
X222362Y15125D01*
D02*G37*
G36*
X223149Y1542D02*
X223149Y1542D01*
X226102Y1542D01*
X226889Y15125D01*
X223149Y1542D01*
D02*G37*
G36*
X223149Y1542D02*
X223149Y1542D01*
X226889Y15125D01*
X222362Y15125D01*
X223149Y1542D01*
D02*G37*
G36*
X222362Y15125D02*
X222362Y15125D01*
X223149Y1542D01*
X223425Y3786D01*
X222362Y15125D01*
D02*G37*
G36*
X223149Y1542D02*
X223149Y1542D01*
X226102Y1542D01*
X226889Y15125D01*
X223149Y1542D01*
D02*G37*
G36*
X223149Y1542D02*
X223149Y1542D01*
X226889Y15125D01*
X222362Y15125D01*
X223149Y1542D01*
D02*G37*
G36*
X241181Y15125D02*
X241181Y15125D01*
X241968Y1542D01*
X242244Y3786D01*
X241181Y15125D01*
D02*G37*
G36*
X241968Y1542D02*
X241968Y1542D01*
X244921Y1542D01*
X245708Y15125D01*
X241968Y1542D01*
D02*G37*
G36*
X241968Y1542D02*
X241968Y1542D01*
X245708Y15125D01*
X241181Y15125D01*
X241968Y1542D01*
D02*G37*
G36*
X241181Y15125D02*
X241181Y15125D01*
X241968Y1542D01*
X242244Y3786D01*
X241181Y15125D01*
D02*G37*
G36*
X241968Y1542D02*
X241968Y1542D01*
X244921Y1542D01*
X245708Y15125D01*
X241968Y1542D01*
D02*G37*
G36*
X241968Y1542D02*
X241968Y1542D01*
X245708Y15125D01*
X241181Y15125D01*
X241968Y1542D01*
D02*G37*
G36*
X241181Y15125D02*
X241181Y15125D01*
X241968Y1542D01*
X242244Y3786D01*
X241181Y15125D01*
D02*G37*
G36*
X241968Y1542D02*
X241968Y1542D01*
X244921Y1542D01*
X245708Y15125D01*
X241968Y1542D01*
D02*G37*
G36*
X241968Y1542D02*
X241968Y1542D01*
X245708Y15125D01*
X241181Y15125D01*
X241968Y1542D01*
D02*G37*
G36*
X260000Y15125D02*
X260000Y15125D01*
X260787Y1542D01*
X261062Y3786D01*
X260000Y15125D01*
D02*G37*
G36*
X260787Y1542D02*
X260787Y1542D01*
X263740Y1542D01*
X264527Y15125D01*
X260787Y1542D01*
D02*G37*
G36*
X260787Y1542D02*
X260787Y1542D01*
X264527Y15125D01*
X260000Y15125D01*
X260787Y1542D01*
D02*G37*
G36*
X260000Y15125D02*
X260000Y15125D01*
X260787Y1542D01*
X261062Y3786D01*
X260000Y15125D01*
D02*G37*
G36*
X260787Y1542D02*
X260787Y1542D01*
X263740Y1542D01*
X264527Y15125D01*
X260787Y1542D01*
D02*G37*
G36*
X260787Y1542D02*
X260787Y1542D01*
X264527Y15125D01*
X260000Y15125D01*
X260787Y1542D01*
D02*G37*
G36*
X260000Y15125D02*
X260000Y15125D01*
X260787Y1542D01*
X261062Y3786D01*
X260000Y15125D01*
D02*G37*
G36*
X260787Y1542D02*
X260787Y1542D01*
X263740Y1542D01*
X264527Y15125D01*
X260787Y1542D01*
D02*G37*
G36*
X260787Y1542D02*
X260787Y1542D01*
X264527Y15125D01*
X260000Y15125D01*
X260787Y1542D01*
D02*G37*
G36*
X278818Y15125D02*
X278818Y15125D01*
X279606Y1542D01*
X279881Y3786D01*
X278818Y15125D01*
D02*G37*
G36*
X279606Y1542D02*
X279606Y1542D01*
X282559Y1542D01*
X283346Y15125D01*
X279606Y1542D01*
D02*G37*
G36*
X279606Y1542D02*
X279606Y1542D01*
X283346Y15125D01*
X278818Y15125D01*
X279606Y1542D01*
D02*G37*
G36*
X278818Y15125D02*
X278818Y15125D01*
X279606Y1542D01*
X279881Y3786D01*
X278818Y15125D01*
D02*G37*
G36*
X279606Y1542D02*
X279606Y1542D01*
X282559Y1542D01*
X283346Y15125D01*
X279606Y1542D01*
D02*G37*
G36*
X279606Y1542D02*
X279606Y1542D01*
X283346Y15125D01*
X278818Y15125D01*
X279606Y1542D01*
D02*G37*
G36*
X278818Y15125D02*
X278818Y15125D01*
X279606Y1542D01*
X279881Y3786D01*
X278818Y15125D01*
D02*G37*
G36*
X279606Y1542D02*
X279606Y1542D01*
X282559Y1542D01*
X283346Y15125D01*
X279606Y1542D01*
D02*G37*
G36*
X279606Y1542D02*
X279606Y1542D01*
X283346Y15125D01*
X278818Y15125D01*
X279606Y1542D01*
D02*G37*
G36*
X297637Y15125D02*
X297637Y15125D01*
X298425Y1542D01*
X298700Y3786D01*
X297637Y15125D01*
D02*G37*
G36*
X298425Y1542D02*
X298425Y1542D01*
X301377Y1542D01*
X302165Y15125D01*
X298425Y1542D01*
D02*G37*
G36*
X298425Y1542D02*
X298425Y1542D01*
X302165Y15125D01*
X297637Y15125D01*
X298425Y1542D01*
D02*G37*
G36*
X297637Y15125D02*
X297637Y15125D01*
X298425Y1542D01*
X298700Y3786D01*
X297637Y15125D01*
D02*G37*
G36*
X298425Y1542D02*
X298425Y1542D01*
X301377Y1542D01*
X302165Y15125D01*
X298425Y1542D01*
D02*G37*
G36*
X298425Y1542D02*
X298425Y1542D01*
X302165Y15125D01*
X297637Y15125D01*
X298425Y1542D01*
D02*G37*
G36*
X297637Y15125D02*
X297637Y15125D01*
X298425Y1542D01*
X298700Y3786D01*
X297637Y15125D01*
D02*G37*
G36*
X298425Y1542D02*
X298425Y1542D01*
X301377Y1542D01*
X302165Y15125D01*
X298425Y1542D01*
D02*G37*
G36*
X298425Y1542D02*
X298425Y1542D01*
X302165Y15125D01*
X297637Y15125D01*
X298425Y1542D01*
D02*G37*
G36*
X316456Y15125D02*
X316456Y15125D01*
X317244Y1542D01*
X317519Y3786D01*
X316456Y15125D01*
D02*G37*
G36*
X317244Y1542D02*
X317244Y1542D01*
X320196Y1542D01*
X320984Y15125D01*
X317244Y1542D01*
D02*G37*
G36*
X317244Y1542D02*
X317244Y1542D01*
X320984Y15125D01*
X316456Y15125D01*
X317244Y1542D01*
D02*G37*
G36*
X316456Y15125D02*
X316456Y15125D01*
X317244Y1542D01*
X317519Y3786D01*
X316456Y15125D01*
D02*G37*
G36*
X317244Y1542D02*
X317244Y1542D01*
X320196Y1542D01*
X320984Y15125D01*
X317244Y1542D01*
D02*G37*
G36*
X317244Y1542D02*
X317244Y1542D01*
X320984Y15125D01*
X316456Y15125D01*
X317244Y1542D01*
D02*G37*
G36*
X316456Y15125D02*
X316456Y15125D01*
X317244Y1542D01*
X317519Y3786D01*
X316456Y15125D01*
D02*G37*
G36*
X317244Y1542D02*
X317244Y1542D01*
X320196Y1542D01*
X320984Y15125D01*
X317244Y1542D01*
D02*G37*
G36*
X317244Y1542D02*
X317244Y1542D01*
X320984Y15125D01*
X316456Y15125D01*
X317244Y1542D01*
D02*G37*
G36*
X335275Y15125D02*
X335275Y15125D01*
X336062Y1542D01*
X336338Y3786D01*
X335275Y15125D01*
D02*G37*
G36*
X336062Y1542D02*
X336062Y1542D01*
X339015Y1542D01*
X339803Y15125D01*
X336062Y1542D01*
D02*G37*
G36*
X336062Y1542D02*
X336062Y1542D01*
X339803Y15125D01*
X335275Y15125D01*
X336062Y1542D01*
D02*G37*
G36*
X335275Y15125D02*
X335275Y15125D01*
X336062Y1542D01*
X336338Y3786D01*
X335275Y15125D01*
D02*G37*
G36*
X336062Y1542D02*
X336062Y1542D01*
X339015Y1542D01*
X339803Y15125D01*
X336062Y1542D01*
D02*G37*
G36*
X336062Y1542D02*
X336062Y1542D01*
X339803Y15125D01*
X335275Y15125D01*
X336062Y1542D01*
D02*G37*
G36*
X335275Y15125D02*
X335275Y15125D01*
X336062Y1542D01*
X336338Y3786D01*
X335275Y15125D01*
D02*G37*
G36*
X336062Y1542D02*
X336062Y1542D01*
X339015Y1542D01*
X339803Y15125D01*
X336062Y1542D01*
D02*G37*
G36*
X336062Y1542D02*
X336062Y1542D01*
X339803Y15125D01*
X335275Y15125D01*
X336062Y1542D01*
D02*G37*
G36*
X354094Y15125D02*
X354094Y15125D01*
X354881Y1542D01*
X355157Y3786D01*
X354094Y15125D01*
D02*G37*
G36*
X354881Y1542D02*
X354881Y1542D01*
X357834Y1542D01*
X358622Y15125D01*
X354881Y1542D01*
D02*G37*
G36*
X354881Y1542D02*
X354881Y1542D01*
X358622Y15125D01*
X354094Y15125D01*
X354881Y1542D01*
D02*G37*
G36*
X354094Y15125D02*
X354094Y15125D01*
X354881Y1542D01*
X355157Y3786D01*
X354094Y15125D01*
D02*G37*
G36*
X354881Y1542D02*
X354881Y1542D01*
X357834Y1542D01*
X358622Y15125D01*
X354881Y1542D01*
D02*G37*
G36*
X354881Y1542D02*
X354881Y1542D01*
X358622Y15125D01*
X354094Y15125D01*
X354881Y1542D01*
D02*G37*
G36*
X354094Y15125D02*
X354094Y15125D01*
X354881Y1542D01*
X355157Y3786D01*
X354094Y15125D01*
D02*G37*
G36*
X354881Y1542D02*
X354881Y1542D01*
X357834Y1542D01*
X358622Y15125D01*
X354881Y1542D01*
D02*G37*
G36*
X354881Y1542D02*
X354881Y1542D01*
X358622Y15125D01*
X354094Y15125D01*
X354881Y1542D01*
D02*G37*
G36*
X372913Y15125D02*
X372913Y15125D01*
X373700Y1542D01*
X373976Y3786D01*
X372913Y15125D01*
D02*G37*
G36*
X373700Y1542D02*
X373700Y1542D01*
X376653Y1542D01*
X377440Y15125D01*
X373700Y1542D01*
D02*G37*
G36*
X373700Y1542D02*
X373700Y1542D01*
X377440Y15125D01*
X372913Y15125D01*
X373700Y1542D01*
D02*G37*
G36*
X372913Y15125D02*
X372913Y15125D01*
X373700Y1542D01*
X373976Y3786D01*
X372913Y15125D01*
D02*G37*
G36*
X373700Y1542D02*
X373700Y1542D01*
X376653Y1542D01*
X377440Y15125D01*
X373700Y1542D01*
D02*G37*
G36*
X373700Y1542D02*
X373700Y1542D01*
X377440Y15125D01*
X372913Y15125D01*
X373700Y1542D01*
D02*G37*
G36*
X372913Y15125D02*
X372913Y15125D01*
X373700Y1542D01*
X373976Y3786D01*
X372913Y15125D01*
D02*G37*
G36*
X373700Y1542D02*
X373700Y1542D01*
X376653Y1542D01*
X377440Y15125D01*
X373700Y1542D01*
D02*G37*
G36*
X373700Y1542D02*
X373700Y1542D01*
X377440Y15125D01*
X372913Y15125D01*
X373700Y1542D01*
D02*G37*
G36*
X391732Y15125D02*
X391732Y15125D01*
X392519Y1542D01*
X392795Y3786D01*
X391732Y15125D01*
D02*G37*
G36*
X392519Y1542D02*
X392519Y1542D01*
X395472Y1542D01*
X396259Y15125D01*
X392519Y1542D01*
D02*G37*
G36*
X392519Y1542D02*
X392519Y1542D01*
X396259Y15125D01*
X391732Y15125D01*
X392519Y1542D01*
D02*G37*
G36*
X391732Y15125D02*
X391732Y15125D01*
X392519Y1542D01*
X392795Y3786D01*
X391732Y15125D01*
D02*G37*
G36*
X392519Y1542D02*
X392519Y1542D01*
X395472Y1542D01*
X396259Y15125D01*
X392519Y1542D01*
D02*G37*
G36*
X392519Y1542D02*
X392519Y1542D01*
X396259Y15125D01*
X391732Y15125D01*
X392519Y1542D01*
D02*G37*
G36*
X391732Y15125D02*
X391732Y15125D01*
X392519Y1542D01*
X392795Y3786D01*
X391732Y15125D01*
D02*G37*
G36*
X392519Y1542D02*
X392519Y1542D01*
X395472Y1542D01*
X396259Y15125D01*
X392519Y1542D01*
D02*G37*
G36*
X392519Y1542D02*
X392519Y1542D01*
X396259Y15125D01*
X391732Y15125D01*
X392519Y1542D01*
D02*G37*
G36*
X410551Y15125D02*
X410551Y15125D01*
X411338Y1542D01*
X411614Y3786D01*
X410551Y15125D01*
D02*G37*
G36*
X411338Y1542D02*
X411338Y1542D01*
X414291Y1542D01*
X415078Y15125D01*
X411338Y1542D01*
D02*G37*
G36*
X411338Y1542D02*
X411338Y1542D01*
X415078Y15125D01*
X410551Y15125D01*
X411338Y1542D01*
D02*G37*
G36*
X410551Y15125D02*
X410551Y15125D01*
X411338Y1542D01*
X411614Y3786D01*
X410551Y15125D01*
D02*G37*
G36*
X411338Y1542D02*
X411338Y1542D01*
X414291Y1542D01*
X415078Y15125D01*
X411338Y1542D01*
D02*G37*
G36*
X411338Y1542D02*
X411338Y1542D01*
X415078Y15125D01*
X410551Y15125D01*
X411338Y1542D01*
D02*G37*
G36*
X410551Y15125D02*
X410551Y15125D01*
X411338Y1542D01*
X411614Y3786D01*
X410551Y15125D01*
D02*G37*
G36*
X411338Y1542D02*
X411338Y1542D01*
X414291Y1542D01*
X415078Y15125D01*
X411338Y1542D01*
D02*G37*
G36*
X411338Y1542D02*
X411338Y1542D01*
X415078Y15125D01*
X410551Y15125D01*
X411338Y1542D01*
D02*G37*
G36*
X429370Y15125D02*
X429370Y15125D01*
X430157Y1542D01*
X430433Y3786D01*
X429370Y15125D01*
D02*G37*
G36*
X430157Y1542D02*
X430157Y1542D01*
X433110Y1542D01*
X433897Y15125D01*
X430157Y1542D01*
D02*G37*
G36*
X430157Y1542D02*
X430157Y1542D01*
X433897Y15125D01*
X429370Y15125D01*
X430157Y1542D01*
D02*G37*
G36*
X429370Y15125D02*
X429370Y15125D01*
X430157Y1542D01*
X430433Y3786D01*
X429370Y15125D01*
D02*G37*
G36*
X430157Y1542D02*
X430157Y1542D01*
X433110Y1542D01*
X433897Y15125D01*
X430157Y1542D01*
D02*G37*
G36*
X430157Y1542D02*
X430157Y1542D01*
X433897Y15125D01*
X429370Y15125D01*
X430157Y1542D01*
D02*G37*
G36*
X429370Y15125D02*
X429370Y15125D01*
X430157Y1542D01*
X430433Y3786D01*
X429370Y15125D01*
D02*G37*
G36*
X430157Y1542D02*
X430157Y1542D01*
X433110Y1542D01*
X433897Y15125D01*
X430157Y1542D01*
D02*G37*
G36*
X430157Y1542D02*
X430157Y1542D01*
X433897Y15125D01*
X429370Y15125D01*
X430157Y1542D01*
D02*G37*
G36*
X448188Y15125D02*
X448188Y15125D01*
X448976Y1542D01*
X449251Y3786D01*
X448188Y15125D01*
D02*G37*
G36*
X448976Y1542D02*
X448976Y1542D01*
X451929Y1542D01*
X452716Y15125D01*
X448976Y1542D01*
D02*G37*
G36*
X448976Y1542D02*
X448976Y1542D01*
X452716Y15125D01*
X448188Y15125D01*
X448976Y1542D01*
D02*G37*
G36*
X448188Y15125D02*
X448188Y15125D01*
X448976Y1542D01*
X449251Y3786D01*
X448188Y15125D01*
D02*G37*
G36*
X448976Y1542D02*
X448976Y1542D01*
X451929Y1542D01*
X452716Y15125D01*
X448976Y1542D01*
D02*G37*
G36*
X448976Y1542D02*
X448976Y1542D01*
X452716Y15125D01*
X448188Y15125D01*
X448976Y1542D01*
D02*G37*
G36*
X448188Y15125D02*
X448188Y15125D01*
X448976Y1542D01*
X449251Y3786D01*
X448188Y15125D01*
D02*G37*
G36*
X448976Y1542D02*
X448976Y1542D01*
X451929Y1542D01*
X452716Y15125D01*
X448976Y1542D01*
D02*G37*
G36*
X448976Y1542D02*
X448976Y1542D01*
X452716Y15125D01*
X448188Y15125D01*
X448976Y1542D01*
D02*G37*
G36*
X467007Y15125D02*
X467007Y15125D01*
X467795Y1542D01*
X468070Y3786D01*
X467007Y15125D01*
D02*G37*
G36*
X467795Y1542D02*
X467795Y1542D01*
X470748Y1542D01*
X471535Y15125D01*
X467795Y1542D01*
D02*G37*
G36*
X467795Y1542D02*
X467795Y1542D01*
X471535Y15125D01*
X467007Y15125D01*
X467795Y1542D01*
D02*G37*
G36*
X467007Y15125D02*
X467007Y15125D01*
X467795Y1542D01*
X468070Y3786D01*
X467007Y15125D01*
D02*G37*
G36*
X467795Y1542D02*
X467795Y1542D01*
X470748Y1542D01*
X471535Y15125D01*
X467795Y1542D01*
D02*G37*
G36*
X467795Y1542D02*
X467795Y1542D01*
X471535Y15125D01*
X467007Y15125D01*
X467795Y1542D01*
D02*G37*
G36*
X467007Y15125D02*
X467007Y15125D01*
X467795Y1542D01*
X468070Y3786D01*
X467007Y15125D01*
D02*G37*
G36*
X467795Y1542D02*
X467795Y1542D01*
X470748Y1542D01*
X471535Y15125D01*
X467795Y1542D01*
D02*G37*
G36*
X467795Y1542D02*
X467795Y1542D01*
X471535Y15125D01*
X467007Y15125D01*
X467795Y1542D01*
D02*G37*
G36*
X485826Y15125D02*
X485826Y15125D01*
X486614Y1542D01*
X486889Y3786D01*
X485826Y15125D01*
D02*G37*
G36*
X486614Y1542D02*
X486614Y1542D01*
X489566Y1542D01*
X490354Y15125D01*
X486614Y1542D01*
D02*G37*
G36*
X486614Y1542D02*
X486614Y1542D01*
X490354Y15125D01*
X485826Y15125D01*
X486614Y1542D01*
D02*G37*
G36*
X485826Y15125D02*
X485826Y15125D01*
X486614Y1542D01*
X486889Y3786D01*
X485826Y15125D01*
D02*G37*
G36*
X486614Y1542D02*
X486614Y1542D01*
X489566Y1542D01*
X490354Y15125D01*
X486614Y1542D01*
D02*G37*
G36*
X486614Y1542D02*
X486614Y1542D01*
X490354Y15125D01*
X485826Y15125D01*
X486614Y1542D01*
D02*G37*
G36*
X485826Y15125D02*
X485826Y15125D01*
X486614Y1542D01*
X486889Y3786D01*
X485826Y15125D01*
D02*G37*
G36*
X486614Y1542D02*
X486614Y1542D01*
X489566Y1542D01*
X490354Y15125D01*
X486614Y1542D01*
D02*G37*
G36*
X486614Y1542D02*
X486614Y1542D01*
X490354Y15125D01*
X485826Y15125D01*
X486614Y1542D01*
D02*G37*
G36*
X504645Y15125D02*
X504645Y15125D01*
X505433Y1542D01*
X505708Y3786D01*
X504645Y15125D01*
D02*G37*
G36*
X505433Y1542D02*
X505433Y1542D01*
X508385Y1542D01*
X509173Y15125D01*
X505433Y1542D01*
D02*G37*
G36*
X505433Y1542D02*
X505433Y1542D01*
X509173Y15125D01*
X504645Y15125D01*
X505433Y1542D01*
D02*G37*
G36*
X504645Y15125D02*
X504645Y15125D01*
X505433Y1542D01*
X505708Y3786D01*
X504645Y15125D01*
D02*G37*
G36*
X505433Y1542D02*
X505433Y1542D01*
X508385Y1542D01*
X509173Y15125D01*
X505433Y1542D01*
D02*G37*
G36*
X505433Y1542D02*
X505433Y1542D01*
X509173Y15125D01*
X504645Y15125D01*
X505433Y1542D01*
D02*G37*
G36*
X504645Y15125D02*
X504645Y15125D01*
X505433Y1542D01*
X505708Y3786D01*
X504645Y15125D01*
D02*G37*
G36*
X505433Y1542D02*
X505433Y1542D01*
X508385Y1542D01*
X509173Y15125D01*
X505433Y1542D01*
D02*G37*
G36*
X505433Y1542D02*
X505433Y1542D01*
X509173Y15125D01*
X504645Y15125D01*
X505433Y1542D01*
D02*G37*
G36*
X523464Y15125D02*
X523464Y15125D01*
X524251Y1542D01*
X524527Y3786D01*
X523464Y15125D01*
D02*G37*
G36*
X524251Y1542D02*
X524251Y1542D01*
X527204Y1542D01*
X527992Y15125D01*
X524251Y1542D01*
D02*G37*
G36*
X524251Y1542D02*
X524251Y1542D01*
X527992Y15125D01*
X523464Y15125D01*
X524251Y1542D01*
D02*G37*
G36*
X523464Y15125D02*
X523464Y15125D01*
X524251Y1542D01*
X524527Y3786D01*
X523464Y15125D01*
D02*G37*
G36*
X524251Y1542D02*
X524251Y1542D01*
X527204Y1542D01*
X527992Y15125D01*
X524251Y1542D01*
D02*G37*
G36*
X524251Y1542D02*
X524251Y1542D01*
X527992Y15125D01*
X523464Y15125D01*
X524251Y1542D01*
D02*G37*
G36*
X523464Y15125D02*
X523464Y15125D01*
X524251Y1542D01*
X524527Y3786D01*
X523464Y15125D01*
D02*G37*
G36*
X524251Y1542D02*
X524251Y1542D01*
X527204Y1542D01*
X527992Y15125D01*
X524251Y1542D01*
D02*G37*
G36*
X524251Y1542D02*
X524251Y1542D01*
X527992Y15125D01*
X523464Y15125D01*
X524251Y1542D01*
D02*G37*
G36*
X542283Y15125D02*
X542283Y15125D01*
X543070Y1542D01*
X543346Y3786D01*
X542283Y15125D01*
D02*G37*
G36*
X543070Y1542D02*
X543070Y1542D01*
X546023Y1542D01*
X546811Y15125D01*
X543070Y1542D01*
D02*G37*
G36*
X543070Y1542D02*
X543070Y1542D01*
X546811Y15125D01*
X542283Y15125D01*
X543070Y1542D01*
D02*G37*
G36*
X542283Y15125D02*
X542283Y15125D01*
X543070Y1542D01*
X543346Y3786D01*
X542283Y15125D01*
D02*G37*
G36*
X543070Y1542D02*
X543070Y1542D01*
X546023Y1542D01*
X546811Y15125D01*
X543070Y1542D01*
D02*G37*
G36*
X543070Y1542D02*
X543070Y1542D01*
X546811Y15125D01*
X542283Y15125D01*
X543070Y1542D01*
D02*G37*
G36*
X542283Y15125D02*
X542283Y15125D01*
X543070Y1542D01*
X543346Y3786D01*
X542283Y15125D01*
D02*G37*
G36*
X543070Y1542D02*
X543070Y1542D01*
X546023Y1542D01*
X546811Y15125D01*
X543070Y1542D01*
D02*G37*
G36*
X543070Y1542D02*
X543070Y1542D01*
X546811Y15125D01*
X542283Y15125D01*
X543070Y1542D01*
D02*G37*
G36*
X561102Y15125D02*
X561102Y15125D01*
X561889Y1542D01*
X562165Y3786D01*
X561102Y15125D01*
D02*G37*
G36*
X561889Y1542D02*
X561889Y1542D01*
X564842Y1542D01*
X565629Y15125D01*
X561889Y1542D01*
D02*G37*
G36*
X561889Y1542D02*
X561889Y1542D01*
X565629Y15125D01*
X561102Y15125D01*
X561889Y1542D01*
D02*G37*
G36*
X561102Y15125D02*
X561102Y15125D01*
X561889Y1542D01*
X562165Y3786D01*
X561102Y15125D01*
D02*G37*
G36*
X561889Y1542D02*
X561889Y1542D01*
X564842Y1542D01*
X565629Y15125D01*
X561889Y1542D01*
D02*G37*
G36*
X561889Y1542D02*
X561889Y1542D01*
X565629Y15125D01*
X561102Y15125D01*
X561889Y1542D01*
D02*G37*
G36*
X561102Y15125D02*
X561102Y15125D01*
X561889Y1542D01*
X562165Y3786D01*
X561102Y15125D01*
D02*G37*
G36*
X561889Y1542D02*
X561889Y1542D01*
X564842Y1542D01*
X565629Y15125D01*
X561889Y1542D01*
D02*G37*
G36*
X561889Y1542D02*
X561889Y1542D01*
X565629Y15125D01*
X561102Y15125D01*
X561889Y1542D01*
D02*G37*
G36*
X579921Y15125D02*
X579921Y15125D01*
X580708Y1542D01*
X580984Y3786D01*
X579921Y15125D01*
D02*G37*
G36*
X580708Y1542D02*
X580708Y1542D01*
X583661Y1542D01*
X584448Y15125D01*
X580708Y1542D01*
D02*G37*
G36*
X580708Y1542D02*
X580708Y1542D01*
X584448Y15125D01*
X579921Y15125D01*
X580708Y1542D01*
D02*G37*
G36*
X579921Y15125D02*
X579921Y15125D01*
X580708Y1542D01*
X580984Y3786D01*
X579921Y15125D01*
D02*G37*
G36*
X580708Y1542D02*
X580708Y1542D01*
X583661Y1542D01*
X584448Y15125D01*
X580708Y1542D01*
D02*G37*
G36*
X580708Y1542D02*
X580708Y1542D01*
X584448Y15125D01*
X579921Y15125D01*
X580708Y1542D01*
D02*G37*
G36*
X579921Y15125D02*
X579921Y15125D01*
X580708Y1542D01*
X580984Y3786D01*
X579921Y15125D01*
D02*G37*
G36*
X580708Y1542D02*
X580708Y1542D01*
X583661Y1542D01*
X584448Y15125D01*
X580708Y1542D01*
D02*G37*
G36*
X580708Y1542D02*
X580708Y1542D01*
X584448Y15125D01*
X579921Y15125D01*
X580708Y1542D01*
D02*G37*
G36*
X598740Y15125D02*
X598740Y15125D01*
X599527Y1542D01*
X599803Y3786D01*
X598740Y15125D01*
D02*G37*
G36*
X599527Y1542D02*
X599527Y1542D01*
X602480Y1542D01*
X603267Y15125D01*
X599527Y1542D01*
D02*G37*
G36*
X599527Y1542D02*
X599527Y1542D01*
X603267Y15125D01*
X598740Y15125D01*
X599527Y1542D01*
D02*G37*
G36*
X598740Y15125D02*
X598740Y15125D01*
X599527Y1542D01*
X599803Y3786D01*
X598740Y15125D01*
D02*G37*
G36*
X599527Y1542D02*
X599527Y1542D01*
X602480Y1542D01*
X603267Y15125D01*
X599527Y1542D01*
D02*G37*
G36*
X599527Y1542D02*
X599527Y1542D01*
X603267Y15125D01*
X598740Y15125D01*
X599527Y1542D01*
D02*G37*
G36*
X598740Y15125D02*
X598740Y15125D01*
X599527Y1542D01*
X599803Y3786D01*
X598740Y15125D01*
D02*G37*
G36*
X599527Y1542D02*
X599527Y1542D01*
X602480Y1542D01*
X603267Y15125D01*
X599527Y1542D01*
D02*G37*
G36*
X599527Y1542D02*
X599527Y1542D01*
X603267Y15125D01*
X598740Y15125D01*
X599527Y1542D01*
D02*G37*
G36*
X617559Y15125D02*
X617559Y15125D01*
X618346Y1542D01*
X618622Y3786D01*
X617559Y15125D01*
D02*G37*
G36*
X618346Y1542D02*
X618346Y1542D01*
X621299Y1542D01*
X622086Y15125D01*
X618346Y1542D01*
D02*G37*
G36*
X618346Y1542D02*
X618346Y1542D01*
X622086Y15125D01*
X617559Y15125D01*
X618346Y1542D01*
D02*G37*
G36*
X617559Y15125D02*
X617559Y15125D01*
X618346Y1542D01*
X618622Y3786D01*
X617559Y15125D01*
D02*G37*
G36*
X618346Y1542D02*
X618346Y1542D01*
X621299Y1542D01*
X622086Y15125D01*
X618346Y1542D01*
D02*G37*
G36*
X618346Y1542D02*
X618346Y1542D01*
X622086Y15125D01*
X617559Y15125D01*
X618346Y1542D01*
D02*G37*
G36*
X617559Y15125D02*
X617559Y15125D01*
X618346Y1542D01*
X618622Y3786D01*
X617559Y15125D01*
D02*G37*
G36*
X618346Y1542D02*
X618346Y1542D01*
X621299Y1542D01*
X622086Y15125D01*
X618346Y1542D01*
D02*G37*
G36*
X618346Y1542D02*
X618346Y1542D01*
X622086Y15125D01*
X617559Y15125D01*
X618346Y1542D01*
D02*G37*
G36*
X636377Y15125D02*
X636377Y15125D01*
X637165Y1542D01*
X637440Y3786D01*
X636377Y15125D01*
D02*G37*
G36*
X637165Y1542D02*
X637165Y1542D01*
X640118Y1542D01*
X640905Y15125D01*
X637165Y1542D01*
D02*G37*
G36*
X637165Y1542D02*
X637165Y1542D01*
X640905Y15125D01*
X636377Y15125D01*
X637165Y1542D01*
D02*G37*
G36*
X636377Y15125D02*
X636377Y15125D01*
X637165Y1542D01*
X637440Y3786D01*
X636377Y15125D01*
D02*G37*
G36*
X637165Y1542D02*
X637165Y1542D01*
X640118Y1542D01*
X640905Y15125D01*
X637165Y1542D01*
D02*G37*
G36*
X637165Y1542D02*
X637165Y1542D01*
X640905Y15125D01*
X636377Y15125D01*
X637165Y1542D01*
D02*G37*
G36*
X636377Y15125D02*
X636377Y15125D01*
X637165Y1542D01*
X637440Y3786D01*
X636377Y15125D01*
D02*G37*
G36*
X637165Y1542D02*
X637165Y1542D01*
X640118Y1542D01*
X640905Y15125D01*
X637165Y1542D01*
D02*G37*
G36*
X637165Y1542D02*
X637165Y1542D01*
X640905Y15125D01*
X636377Y15125D01*
X637165Y1542D01*
D02*G37*
G36*
X655196Y15125D02*
X655196Y15125D01*
X655984Y1542D01*
X656259Y3786D01*
X655196Y15125D01*
D02*G37*
G36*
X655984Y1542D02*
X655984Y1542D01*
X658937Y1542D01*
X659724Y15125D01*
X655984Y1542D01*
D02*G37*
G36*
X655984Y1542D02*
X655984Y1542D01*
X659724Y15125D01*
X655196Y15125D01*
X655984Y1542D01*
D02*G37*
G36*
X655196Y15125D02*
X655196Y15125D01*
X655984Y1542D01*
X656259Y3786D01*
X655196Y15125D01*
D02*G37*
G36*
X655984Y1542D02*
X655984Y1542D01*
X658937Y1542D01*
X659724Y15125D01*
X655984Y1542D01*
D02*G37*
G36*
X655984Y1542D02*
X655984Y1542D01*
X659724Y15125D01*
X655196Y15125D01*
X655984Y1542D01*
D02*G37*
G36*
X655196Y15125D02*
X655196Y15125D01*
X655984Y1542D01*
X656259Y3786D01*
X655196Y15125D01*
D02*G37*
G36*
X655984Y1542D02*
X655984Y1542D01*
X658937Y1542D01*
X659724Y15125D01*
X655984Y1542D01*
D02*G37*
G36*
X655984Y1542D02*
X655984Y1542D01*
X659724Y15125D01*
X655196Y15125D01*
X655984Y1542D01*
D02*G37*
G36*
X674015Y15125D02*
X674015Y15125D01*
X674803Y1542D01*
X675078Y3786D01*
X674015Y15125D01*
D02*G37*
G36*
X674803Y1542D02*
X674803Y1542D01*
X677755Y1542D01*
X678543Y15125D01*
X674803Y1542D01*
D02*G37*
G36*
X674803Y1542D02*
X674803Y1542D01*
X678543Y15125D01*
X674015Y15125D01*
X674803Y1542D01*
D02*G37*
G36*
X674015Y15125D02*
X674015Y15125D01*
X674803Y1542D01*
X675078Y3786D01*
X674015Y15125D01*
D02*G37*
G36*
X674803Y1542D02*
X674803Y1542D01*
X677755Y1542D01*
X678543Y15125D01*
X674803Y1542D01*
D02*G37*
G36*
X674803Y1542D02*
X674803Y1542D01*
X678543Y15125D01*
X674015Y15125D01*
X674803Y1542D01*
D02*G37*
G36*
X674015Y15125D02*
X674015Y15125D01*
X674803Y1542D01*
X675078Y3786D01*
X674015Y15125D01*
D02*G37*
G36*
X674803Y1542D02*
X674803Y1542D01*
X677755Y1542D01*
X678543Y15125D01*
X674803Y1542D01*
D02*G37*
G36*
X674803Y1542D02*
X674803Y1542D01*
X678543Y15125D01*
X674015Y15125D01*
X674803Y1542D01*
D02*G37*
G36*
X692834Y15125D02*
X692834Y15125D01*
X693622Y1542D01*
X693897Y3786D01*
X692834Y15125D01*
D02*G37*
G36*
X693622Y1542D02*
X693622Y1542D01*
X696574Y1542D01*
X697362Y15125D01*
X693622Y1542D01*
D02*G37*
G36*
X693622Y1542D02*
X693622Y1542D01*
X697362Y15125D01*
X692834Y15125D01*
X693622Y1542D01*
D02*G37*
G36*
X692834Y15125D02*
X692834Y15125D01*
X693622Y1542D01*
X693897Y3786D01*
X692834Y15125D01*
D02*G37*
G36*
X693622Y1542D02*
X693622Y1542D01*
X696574Y1542D01*
X697362Y15125D01*
X693622Y1542D01*
D02*G37*
G36*
X693622Y1542D02*
X693622Y1542D01*
X697362Y15125D01*
X692834Y15125D01*
X693622Y1542D01*
D02*G37*
G36*
X692834Y15125D02*
X692834Y15125D01*
X693622Y1542D01*
X693897Y3786D01*
X692834Y15125D01*
D02*G37*
G36*
X693622Y1542D02*
X693622Y1542D01*
X696574Y1542D01*
X697362Y15125D01*
X693622Y1542D01*
D02*G37*
G36*
X693622Y1542D02*
X693622Y1542D01*
X697362Y15125D01*
X692834Y15125D01*
X693622Y1542D01*
D02*G37*
G36*
X711653Y15125D02*
X711653Y15125D01*
X712440Y1542D01*
X712716Y3786D01*
X711653Y15125D01*
D02*G37*
G36*
X712440Y1542D02*
X712440Y1542D01*
X715393Y1542D01*
X716181Y15125D01*
X712440Y1542D01*
D02*G37*
G36*
X712440Y1542D02*
X712440Y1542D01*
X716181Y15125D01*
X711653Y15125D01*
X712440Y1542D01*
D02*G37*
G36*
X711653Y15125D02*
X711653Y15125D01*
X712440Y1542D01*
X712716Y3786D01*
X711653Y15125D01*
D02*G37*
G36*
X712440Y1542D02*
X712440Y1542D01*
X715393Y1542D01*
X716181Y15125D01*
X712440Y1542D01*
D02*G37*
G36*
X712440Y1542D02*
X712440Y1542D01*
X716181Y15125D01*
X711653Y15125D01*
X712440Y1542D01*
D02*G37*
G36*
X711653Y15125D02*
X711653Y15125D01*
X712440Y1542D01*
X712716Y3786D01*
X711653Y15125D01*
D02*G37*
G36*
X712440Y1542D02*
X712440Y1542D01*
X715393Y1542D01*
X716181Y15125D01*
X712440Y1542D01*
D02*G37*
G36*
X712440Y1542D02*
X712440Y1542D01*
X716181Y15125D01*
X711653Y15125D01*
X712440Y1542D01*
D02*G37*
G36*
X730472Y15125D02*
X730472Y15125D01*
X731259Y1542D01*
X731535Y3786D01*
X730472Y15125D01*
D02*G37*
G36*
X731259Y1542D02*
X731259Y1542D01*
X734212Y1542D01*
X735000Y15125D01*
X731259Y1542D01*
D02*G37*
G36*
X731259Y1542D02*
X731259Y1542D01*
X735000Y15125D01*
X730472Y15125D01*
X731259Y1542D01*
D02*G37*
G36*
X730472Y15125D02*
X730472Y15125D01*
X731259Y1542D01*
X731535Y3786D01*
X730472Y15125D01*
D02*G37*
G36*
X731259Y1542D02*
X731259Y1542D01*
X734212Y1542D01*
X735000Y15125D01*
X731259Y1542D01*
D02*G37*
G36*
X731259Y1542D02*
X731259Y1542D01*
X735000Y15125D01*
X730472Y15125D01*
X731259Y1542D01*
D02*G37*
G36*
X730472Y15125D02*
X730472Y15125D01*
X731259Y1542D01*
X731535Y3786D01*
X730472Y15125D01*
D02*G37*
G36*
X731259Y1542D02*
X731259Y1542D01*
X734212Y1542D01*
X735000Y15125D01*
X731259Y1542D01*
D02*G37*
G36*
X731259Y1542D02*
X731259Y1542D01*
X735000Y15125D01*
X730472Y15125D01*
X731259Y1542D01*
D02*G37*
G36*
X749291Y15125D02*
X749291Y15125D01*
X750078Y1542D01*
X750354Y3786D01*
X749291Y15125D01*
D02*G37*
G36*
X750078Y1542D02*
X750078Y1542D01*
X753031Y1542D01*
X753818Y15125D01*
X750078Y1542D01*
D02*G37*
G36*
X750078Y1542D02*
X750078Y1542D01*
X753818Y15125D01*
X749291Y15125D01*
X750078Y1542D01*
D02*G37*
G36*
X749291Y15125D02*
X749291Y15125D01*
X750078Y1542D01*
X750354Y3786D01*
X749291Y15125D01*
D02*G37*
G36*
X750078Y1542D02*
X750078Y1542D01*
X753031Y1542D01*
X753818Y15125D01*
X750078Y1542D01*
D02*G37*
G36*
X750078Y1542D02*
X750078Y1542D01*
X753818Y15125D01*
X749291Y15125D01*
X750078Y1542D01*
D02*G37*
G36*
X749291Y15125D02*
X749291Y15125D01*
X750078Y1542D01*
X750354Y3786D01*
X749291Y15125D01*
D02*G37*
G36*
X750078Y1542D02*
X750078Y1542D01*
X753031Y1542D01*
X753818Y15125D01*
X750078Y1542D01*
D02*G37*
G36*
X750078Y1542D02*
X750078Y1542D01*
X753818Y15125D01*
X749291Y15125D01*
X750078Y1542D01*
D02*G37*
G36*
X768110Y15125D02*
X768110Y15125D01*
X768897Y1542D01*
X769173Y3786D01*
X768110Y15125D01*
D02*G37*
G36*
X768897Y1542D02*
X768897Y1542D01*
X771850Y1542D01*
X772637Y15125D01*
X768897Y1542D01*
D02*G37*
G36*
X768897Y1542D02*
X768897Y1542D01*
X772637Y15125D01*
X768110Y15125D01*
X768897Y1542D01*
D02*G37*
G36*
X768110Y15125D02*
X768110Y15125D01*
X768897Y1542D01*
X769173Y3786D01*
X768110Y15125D01*
D02*G37*
G36*
X768897Y1542D02*
X768897Y1542D01*
X771850Y1542D01*
X772637Y15125D01*
X768897Y1542D01*
D02*G37*
G36*
X768897Y1542D02*
X768897Y1542D01*
X772637Y15125D01*
X768110Y15125D01*
X768897Y1542D01*
D02*G37*
G36*
X768110Y15125D02*
X768110Y15125D01*
X768897Y1542D01*
X769173Y3786D01*
X768110Y15125D01*
D02*G37*
G36*
X768897Y1542D02*
X768897Y1542D01*
X771850Y1542D01*
X772637Y15125D01*
X768897Y1542D01*
D02*G37*
G36*
X768897Y1542D02*
X768897Y1542D01*
X772637Y15125D01*
X768110Y15125D01*
X768897Y1542D01*
D02*G37*
G36*
X786929Y15125D02*
X786929Y15125D01*
X787716Y1542D01*
X787992Y3786D01*
X786929Y15125D01*
D02*G37*
G36*
X787716Y1542D02*
X787716Y1542D01*
X790669Y1542D01*
X791456Y15125D01*
X787716Y1542D01*
D02*G37*
G36*
X787716Y1542D02*
X787716Y1542D01*
X791456Y15125D01*
X786929Y15125D01*
X787716Y1542D01*
D02*G37*
G36*
X786929Y15125D02*
X786929Y15125D01*
X787716Y1542D01*
X787992Y3786D01*
X786929Y15125D01*
D02*G37*
G36*
X787716Y1542D02*
X787716Y1542D01*
X790669Y1542D01*
X791456Y15125D01*
X787716Y1542D01*
D02*G37*
G36*
X787716Y1542D02*
X787716Y1542D01*
X791456Y15125D01*
X786929Y15125D01*
X787716Y1542D01*
D02*G37*
G36*
X786929Y15125D02*
X786929Y15125D01*
X787716Y1542D01*
X787992Y3786D01*
X786929Y15125D01*
D02*G37*
G36*
X787716Y1542D02*
X787716Y1542D01*
X790669Y1542D01*
X791456Y15125D01*
X787716Y1542D01*
D02*G37*
G36*
X787716Y1542D02*
X787716Y1542D01*
X791456Y15125D01*
X786929Y15125D01*
X787716Y1542D01*
D02*G37*
G36*
X805748Y15125D02*
X805748Y15125D01*
X806535Y1542D01*
X806811Y3786D01*
X805748Y15125D01*
D02*G37*
G36*
X806535Y1542D02*
X806535Y1542D01*
X809488Y1542D01*
X810275Y15125D01*
X806535Y1542D01*
D02*G37*
G36*
X806535Y1542D02*
X806535Y1542D01*
X810275Y15125D01*
X805748Y15125D01*
X806535Y1542D01*
D02*G37*
G36*
X805748Y15125D02*
X805748Y15125D01*
X806535Y1542D01*
X806811Y3786D01*
X805748Y15125D01*
D02*G37*
G36*
X806535Y1542D02*
X806535Y1542D01*
X809488Y1542D01*
X810275Y15125D01*
X806535Y1542D01*
D02*G37*
G36*
X806535Y1542D02*
X806535Y1542D01*
X810275Y15125D01*
X805748Y15125D01*
X806535Y1542D01*
D02*G37*
G36*
X805748Y15125D02*
X805748Y15125D01*
X806535Y1542D01*
X806811Y3786D01*
X805748Y15125D01*
D02*G37*
G36*
X806535Y1542D02*
X806535Y1542D01*
X809488Y1542D01*
X810275Y15125D01*
X806535Y1542D01*
D02*G37*
G36*
X806535Y1542D02*
X806535Y1542D01*
X810275Y15125D01*
X805748Y15125D01*
X806535Y1542D01*
D02*G37*
G36*
X824566Y15125D02*
X824566Y15125D01*
X825354Y1542D01*
X825629Y3786D01*
X824566Y15125D01*
D02*G37*
G36*
X825354Y1542D02*
X825354Y1542D01*
X828307Y1542D01*
X829094Y15125D01*
X825354Y1542D01*
D02*G37*
G36*
X825354Y1542D02*
X825354Y1542D01*
X829094Y15125D01*
X824566Y15125D01*
X825354Y1542D01*
D02*G37*
G36*
X824566Y15125D02*
X824566Y15125D01*
X825354Y1542D01*
X825629Y3786D01*
X824566Y15125D01*
D02*G37*
G36*
X825354Y1542D02*
X825354Y1542D01*
X828307Y1542D01*
X829094Y15125D01*
X825354Y1542D01*
D02*G37*
G36*
X825354Y1542D02*
X825354Y1542D01*
X829094Y15125D01*
X824566Y15125D01*
X825354Y1542D01*
D02*G37*
G36*
X824566Y15125D02*
X824566Y15125D01*
X825354Y1542D01*
X825629Y3786D01*
X824566Y15125D01*
D02*G37*
G36*
X825354Y1542D02*
X825354Y1542D01*
X828307Y1542D01*
X829094Y15125D01*
X825354Y1542D01*
D02*G37*
G36*
X825354Y1542D02*
X825354Y1542D01*
X829094Y15125D01*
X824566Y15125D01*
X825354Y1542D01*
D02*G37*
M02*
